<svg xmlns="http://www.w3.org/2000/svg" width="36.888" height="40.559" viewBox="0 0 36.888 40.559">
  <g id="bananaBranco" transform="translate(1.66 -3.5)">
    <path id="Caminho_65" data-name="Caminho 65" d="M373.29,1048.86" transform="translate(-374.95 -1010.851)" fill="none" stroke="#fff" stroke-linecap="round" stroke-linejoin="round" stroke-width="1"/>
    <path id="Caminho_66" data-name="Caminho 66" d="M384.462,863s-9.418.634-3.637-7.21a5.96,5.96,0,0,1,2.115-1.781c3.99-2.023,16.966-8.881,18.941-13.5,2.339-5.474,2.289-6.469,2.289-6.469s3.733-3.434,5.326,2.14c0,0,1.443-5.027,3.732-3.584s1,9.755,1,9.755S407.006,862.448,384.462,863Z" transform="translate(-379.951 -819.464)" fill="none" stroke="#fff" stroke-linecap="round" stroke-linejoin="round" stroke-width="1"/>
    <path id="Caminho_67" data-name="Caminho 67" d="M585.534,766.568s-.365-.547,1.427-2.737a9.129,9.129,0,0,0-2.821-5.608s.166-2.057,4.513-2.223c0,0,.036.55-1.592,2.156l2.123,4.579" transform="translate(-561.315 -752)" fill="none" stroke="#fff" stroke-linecap="round" stroke-linejoin="round" stroke-width="1"/>
    <path id="Caminho_68" data-name="Caminho 68" d="M623,756a5.556,5.556,0,0,1,.929,3.848,5.057,5.057,0,0,0,2.323,2.787,11.118,11.118,0,0,1,3.349,3.252" transform="translate(-595.662 -752)" fill="none" stroke="#fff" stroke-linecap="round" stroke-linejoin="round" stroke-width="1"/>
    <path id="Caminho_69" data-name="Caminho 69" d="M633.417,888.57a6.472,6.472,0,0,1-.846,2.539" transform="translate(-604.121 -869.175)" fill="none" stroke="#fff" stroke-linecap="round" stroke-linejoin="round" stroke-width="1"/>
    <path id="Caminho_70" data-name="Caminho 70" d="M623.531,922.86s.3.5-.531,1.393" transform="translate(-595.662 -899.483)" fill="none" stroke="#fff" stroke-linecap="round" stroke-linejoin="round" stroke-width="1"/>
    <path id="Caminho_71" data-name="Caminho 71" d="M390.7,973.735l1.064-2.285c13.935-2.34,23.922-12.99,23.922-12.99" transform="translate(-390.338 -930.949)" fill="none" stroke="#fff" stroke-linecap="round" stroke-linejoin="round" stroke-width="1"/>
    <line id="Linha_39" data-name="Linha 39" x2="2.17" y2="1.305" transform="translate(-0.745 39.192)" fill="none" stroke="#fff" stroke-linecap="round" stroke-linejoin="round" stroke-width="1"/>
    <line id="Linha_40" data-name="Linha 40" y1="0.066" x2="2.919" transform="translate(22.827 6.156)" fill="none" stroke="#fff" stroke-linecap="round" stroke-linejoin="round" stroke-width="1"/>
  </g>
</svg>
