<svg xmlns="http://www.w3.org/2000/svg" width="28.593" height="21.548" viewBox="0 0 28.593 21.548">
  <path id="cartaoSelecionado" d="M18.548,28.593H3a3,3,0,0,1-3-3V3A3,3,0,0,1,3,0H18.548a3,3,0,0,1,3,3V25.592A3,3,0,0,1,18.548,28.593ZM5.354.248A1.966,1.966,0,0,0,3.39,2.212V26.381a1.964,1.964,0,0,0,3.928,0V2.212A1.967,1.967,0,0,0,5.354.248ZM13.43,9.667a.728.728,0,0,0-.727.728V26.618a.728.728,0,0,0,1.455,0V10.4A.729.729,0,0,0,13.43,9.667Zm6,10a.729.729,0,0,0-.728.728v4.223a.728.728,0,0,0,1.455,0V20.395A.728.728,0,0,0,19.43,19.667ZM10.492,3.614a.737.737,0,0,0-.736.736V24.135a.737.737,0,0,0,1.473,0V4.35A.737.737,0,0,0,10.492,3.614ZM19.43,5.667a.728.728,0,0,0-.728.727V17.618a.728.728,0,0,0,1.455,0V6.395A.728.728,0,0,0,19.43,5.667Z" transform="translate(28.593) rotate(90)" fill="#22b8a4"/>
</svg>
