<svg xmlns="http://www.w3.org/2000/svg" width="18.76" height="26.224" viewBox="0 0 18.76 26.224">
  <g id="CopoMedidaRoxo" transform="translate(0.75 0.751)">
    <path id="Caminho_22" data-name="Caminho 22" d="M411.623,1210.413l-2.4-15.6a2.945,2.945,0,0,1,0-4.135h2.4s-1.467-1.867,1.6-3.067h4.98a1.275,1.275,0,0,0,.984-.467c.675-.82,2.094-2.3,2.5-.791,0,0,.343.324-.057,2.325l-.4,2s3.2-1.772,2.667,2c0,0,.724,1.334-1.143,2.515l-2.191,15.223Z" transform="translate(-406.861 -1185.699)" fill="none" stroke="#331759" stroke-linejoin="round" stroke-width="1.5"/>
    <line id="Linha_27" data-name="Linha 27" x2="2.497" transform="translate(2.362 9.109)" fill="none" stroke="#331759" stroke-linecap="round" stroke-linejoin="round" stroke-width="1.5"/>
    <line id="Linha_28" data-name="Linha 28" x1="6.264" transform="translate(9.935 9.109)" fill="none" stroke="#331759" stroke-linecap="round" stroke-linejoin="round" stroke-width="1.5"/>
    <line id="Linha_29" data-name="Linha 29" x1="2.247" transform="translate(12.118 4.975)" fill="none" stroke="#331759" stroke-linecap="round" stroke-linejoin="round" stroke-width="1.5"/>
    <line id="Linha_30" data-name="Linha 30" x2="3.297" transform="translate(4.763 4.975)" fill="none" stroke="#331759" stroke-linecap="round" stroke-linejoin="round" stroke-width="1.5"/>
    <path id="Caminho_24" data-name="Caminho 24" d="M1.286,0,0,11.4" transform="translate(11.78 12.357)" fill="none" stroke="#331759" stroke-linecap="round" stroke-width="1.5"/>
    <path id="Caminho_23" data-name="Caminho 23" d="M397.29,1371c.914.019,2.971,0,2.971,0" transform="translate(-397.29 -1346.286)" fill="none" stroke="#331759" stroke-linecap="round" stroke-linejoin="round" stroke-width="1.5"/>
  </g>
</svg>
