<svg xmlns="http://www.w3.org/2000/svg" width="75" height="77" viewBox="0 0 75 77">
  <g id="copoBranco" transform="translate(-26 -82)">
    <g id="Elipse_23" data-name="Elipse 23" transform="translate(26 82)" fill="none" stroke="#f5f5f5" stroke-width="3">
      <ellipse cx="37.5" cy="38.5" rx="37.5" ry="38.5" stroke="none"/>
      <ellipse cx="37.5" cy="38.5" rx="36" ry="37" fill="none"/>
    </g>
    <g id="Copo" transform="translate(43.747 96)">
      <path id="Caminho_22" data-name="Caminho 22" d="M413.171,1222.043l-3.53-22.948s-2.942-3.138,0-6.08h3.53s-2.157-2.746,2.354-4.511h7.324a1.875,1.875,0,0,0,1.447-.687c.992-1.206,3.079-3.379,3.67-1.163,0,0,.5.477-.084,3.419l-.588,2.942s4.707-2.606,3.923,2.942c0,0,1.065,1.961-1.681,3.7l-3.222,22.386Z" transform="translate(-401.167 -1180.7)" fill="none" stroke="#f5f5f5" stroke-linejoin="round" stroke-width="2"/>
      <line id="Linha_27" data-name="Linha 27" x2="3.672" transform="translate(8.474 18.395)" fill="none" stroke="#f5f5f5" stroke-linecap="round" stroke-linejoin="round" stroke-width="2"/>
      <line id="Linha_28" data-name="Linha 28" x1="9.212" transform="translate(19.61 18.395)" fill="none" stroke="#f5f5f5" stroke-linecap="round" stroke-linejoin="round" stroke-width="2"/>
      <line id="Linha_29" data-name="Linha 29" x1="3.305" transform="translate(22.821 12.315)" fill="none" stroke="#f5f5f5" stroke-linecap="round" stroke-linejoin="round" stroke-width="2"/>
      <line id="Linha_30" data-name="Linha 30" x2="4.848" transform="translate(12.004 12.315)" fill="none" stroke="#f5f5f5" stroke-linecap="round" stroke-linejoin="round" stroke-width="2"/>
      <path id="Caminho_24" data-name="Caminho 24" d="M1.892,0,0,16.771" transform="translate(22.324 23.171)" fill="none" stroke="#f5f5f5" stroke-linecap="round" stroke-width="3"/>
      <path id="Caminho_23" data-name="Caminho 23" d="M397.29,1371c1.344.027,4.37,0,4.37,0" transform="translate(-392.29 -1329.657)" fill="none" stroke="#f5f5f5" stroke-linecap="round" stroke-linejoin="round" stroke-width="2"/>
    </g>
  </g>
</svg>
