<svg xmlns="http://www.w3.org/2000/svg" width="75" height="77" viewBox="0 0 75 77">
  <g id="deliveryRoxo" transform="translate(-214 -109)">
    <g id="Elipse_23" data-name="Elipse 23" transform="translate(214 109)" fill="none" stroke="#251140" stroke-width="3">
      <ellipse cx="37.5" cy="38.5" rx="37.5" ry="38.5" stroke="none"/>
      <ellipse cx="37.5" cy="38.5" rx="36" ry="37" fill="none"/>
    </g>
    <g id="delivery" transform="translate(221.5 124.529)">
      <path id="Caminho_33" data-name="Caminho 33" d="M-1435.807,624.229s1.655-1.486,2.292-.212a5.572,5.572,0,0,1,.51,2.674,1.481,1.481,0,0,1-1.4.339l4.027,5.179s1.358.722.594,3.438-1.189,4.925-1.189,4.925a3.486,3.486,0,0,1-1.528,1.952l-22.07,6.878s-2.759,1.783-2.123-2.377a21.216,21.216,0,0,1,2.929-7.6,3.272,3.272,0,0,1,1.359-.637c.891-.212,10.018-3.057,10.018-3.057s2.208-.687.468.908a24.77,24.77,0,0,0-.34,4.358s.637,2.165,3.353,1.147l4.2-1.359a3.431,3.431,0,0,0,2.208-2.929c.425-2.462.552-4.16.552-4.16s.255-.552-.891-1.74-3.82-4.712-3.82-4.712-.468-1.019,1.018-.849C-1435.633,626.394-1433.727,625.206-1435.807,624.229Z" transform="translate(1474.559 -612.361)" fill="none" stroke="#251140" stroke-linecap="round" stroke-linejoin="round" stroke-width="1"/>
      <path id="Caminho_34" data-name="Caminho 34" d="M-1361.34,598.008l-5.137,3.1,2.568-4.415s.4-2.377-2.568-2.292-6.792,6.028-6.792,6.028-1.443,2.377-.594,4.415c0,0-.424,1.7,1.953,2.886,0,0,4.5.509,7.046-.509l-.011,8.843,4.637-1.5s-.212-1.146-2.844-1.231l1.274-5.688a1.926,1.926,0,0,0-1.188-2.8,41.445,41.445,0,0,0-5.7-1.1s-.5-4.67.865-5.943" transform="translate(1400.093 -586.14)" fill="none" stroke="#251140" stroke-linecap="round" stroke-linejoin="round" stroke-width="1"/>
      <path id="Caminho_35" data-name="Caminho 35" d="M-1300.55,659.015s5.464-5.278,4.655-2.985" transform="translate(1333.801 -641.147)" fill="none" stroke="#251140" stroke-linecap="round" stroke-linejoin="round" stroke-width="1"/>
      <path id="Caminho_36" data-name="Caminho 36" d="M-1366.227,688.71a45.186,45.186,0,0,0-5.163,1.1" transform="translate(1397.624 -671.111)" fill="none" stroke="#251140" stroke-linecap="round" stroke-linejoin="round" stroke-width="1"/>
      <path id="Caminho_37" data-name="Caminho 37" d="M169.07,182.775v-3.1l7.386-2.377h5.064v1.694" transform="translate(-148.27 -155.711)" fill="none" stroke="#251140" stroke-linecap="round" stroke-linejoin="round" stroke-width="1"/>
      <path id="Caminho_38" data-name="Caminho 38" d="M-1281.859,560.215s-.508-3.144,1.7-3.908,3.566,1.954,3.566,1.954a25.127,25.127,0,0,1-2.423.848,5.009,5.009,0,0,0-2.369,1.417Z" transform="translate(1317.007 -551.7)" fill="none" stroke="#251140" stroke-linecap="round" stroke-linejoin="round" stroke-width="1"/>
      <path id="Caminho_39" data-name="Caminho 39" d="M-1270.89,580.84a12.322,12.322,0,0,0,3.12-1.018c.584-.372.654-1.764.624-2.755-.019-.594,1.329,0,1.329,0" transform="translate(1307.078 -570.289)" fill="none" stroke="#251140" stroke-linecap="round" stroke-linejoin="round" stroke-width="1"/>
      <path id="Caminho_40" data-name="Caminho 40" d="M-1196.48,728.211s5.864-3.952,8.637.633c0,0-6.848.679-8.093,5.547,0,0-1.97,1.109-2-.436" transform="translate(1241.354 -705.274)" fill="none" stroke="#251140" stroke-linecap="round" stroke-linejoin="round" stroke-width="1"/>
      <circle id="Elipse_24" data-name="Elipse 24" cx="2.264" cy="2.264" r="2.264" transform="translate(47.798 26.343)" stroke-width="1" stroke="#251140" stroke-linecap="round" stroke-linejoin="round" fill="none"/>
      <path id="Caminho_41" data-name="Caminho 41" d="M-1171.1,751.84a4.935,4.935,0,0,1,2.981,5.646c-.288,1.315-1.228,2.476-3.764,3.508a3.969,3.969,0,0,1-3.1-.031,4.515,4.515,0,0,1-2.684-3.863" transform="translate(1223.083 -727.988)" fill="none" stroke="#251140" stroke-linecap="round" stroke-linejoin="round" stroke-width="1"/>
      <path id="Caminho_42" data-name="Caminho 42" d="M-1416.951,853.08s1.947,5.525-3.343,6.933c-3.053.812-5.486-1.684-6-4.024" transform="translate(1447.086 -819.201)" fill="none" stroke="#251140" stroke-linecap="round" stroke-linejoin="round" stroke-width="1"/>
      <path id="Caminho_43" data-name="Caminho 43" d="M-1398.019,860.53s.954,3.063-.856,3.812c-1.7.705-3.34.266-3.776-2.369" transform="translate(1425.788 -825.913)" fill="none" stroke="#251140" stroke-linecap="round" stroke-linejoin="round" stroke-width="1"/>
      <path id="Caminho_44" data-name="Caminho 44" d="M118.617,132.305l-3.4,1.189-2.151-6.453,7.883-2.321,2.383,6.066" transform="translate(-97.816 -108.339)" fill="none" stroke="#251140" stroke-linecap="round" stroke-linejoin="round" stroke-width="1"/>
      <path id="Caminho_45" data-name="Caminho 45" d="M-1510.712,628.605a17.493,17.493,0,0,0,.255-1.74c0-.4,1.141-.636,1.141-.636a4.889,4.889,0,0,1,.6-1.572c.34-.363,1.875.213.754-2.151-1.814-3.829-2.773,1.048-2.773,1.048-4.05-2.271-2.013,2.335-2.013,2.335-2.548,1.853.032,2.122.032,2.122l2,.594" transform="translate(1525.991 -610.143)" fill="none" stroke="#251140" stroke-linecap="round" stroke-linejoin="round" stroke-width="1"/>
      <line id="Linha_34" data-name="Linha 34" x1="2.485" y1="3.302" transform="translate(18.637 13.672)" fill="none" stroke="#251140" stroke-linecap="round" stroke-linejoin="round" stroke-width="1"/>
      <line id="Linha_35" data-name="Linha 35" x2="5.009" transform="translate(9.594 25.155)" fill="none" stroke="#251140" stroke-linecap="round" stroke-linejoin="round" stroke-width="1"/>
      <line id="Linha_36" data-name="Linha 36" x2="11.377" transform="translate(4.5 28.607)" fill="none" stroke="#251140" stroke-linecap="round" stroke-linejoin="round" stroke-width="1"/>
      <line id="Linha_37" data-name="Linha 37" x2="5.136" transform="translate(6.962 31.522)" fill="none" stroke="#251140" stroke-linecap="round" stroke-linejoin="round" stroke-width="1"/>
      <line id="Linha_38" data-name="Linha 38" x2="33.959" transform="translate(9.934 40.97)" fill="none" stroke="#251140" stroke-linecap="round" stroke-linejoin="round" stroke-width="1"/>
    </g>
  </g>
</svg>
