<svg xmlns="http://www.w3.org/2000/svg" width="13.976" height="26.933" viewBox="0 0 13.976 26.933">
  <path id="dinheiro" d="M11.187-5.423a2.592,2.592,0,0,0-.644-1.848A5.84,5.84,0,0,0,8.354-8.539,25.811,25.811,0,0,1,5.692-9.693,8.481,8.481,0,0,1,3.774-11.01a5.291,5.291,0,0,1-1.246-1.749,5.869,5.869,0,0,1-.446-2.393,5.31,5.31,0,0,1,1.529-3.922,6.453,6.453,0,0,1,4.064-1.784v-3.03H9.94v3.073a5.914,5.914,0,0,1,3.922,2.089,6.882,6.882,0,0,1,1.416,4.5H11.187a3.907,3.907,0,0,0-.7-2.542,2.316,2.316,0,0,0-1.876-.843,2.386,2.386,0,0,0-1.8.658,2.507,2.507,0,0,0-.637,1.82A2.4,2.4,0,0,0,6.8-13.41a6.865,6.865,0,0,0,2.315,1.331A25.714,25.714,0,0,1,11.895-10.8a8.031,8.031,0,0,1,1.841,1.359A5.265,5.265,0,0,1,14.882-7.71a5.939,5.939,0,0,1,.4,2.259,5.286,5.286,0,0,1-1.5,3.908A6.583,6.583,0,0,1,9.643.227V3.044H7.392V.241A6.812,6.812,0,0,1,2.9-1.82,6.641,6.641,0,0,1,1.3-6.471H5.4a3.765,3.765,0,0,0,.8,2.584,2.919,2.919,0,0,0,2.3.9,2.811,2.811,0,0,0,1.968-.658A2.286,2.286,0,0,0,11.187-5.423Z" transform="translate(-1.303 23.888)" fill="#fff"/>
</svg>
