<svg xmlns="http://www.w3.org/2000/svg" width="75" height="77" viewBox="0 0 75 77">
  <g id="embalando" transform="translate(-122 -237)">
    <g id="food-container" transform="translate(142.999 253)">
      <path id="Caminho_132" data-name="Caminho 132" d="M33.676,16.732l-3.188-7.31V2.742A2.744,2.744,0,0,0,27.747,0H6.783A2.745,2.745,0,0,0,4.041,2.742V9.4L.2,16.685c-.355.365-.116.2-.186,9.178a.659.659,0,0,0,1.319,0v-8H7.371V43.688H2.763a1.431,1.431,0,0,1-1.43-1.43V28.324a.659.659,0,0,0-1.319,0V42.258a2.751,2.751,0,0,0,2.748,2.748H31.073a2.751,2.751,0,0,0,2.748-2.748c-.057-26.6.132-25.182-.145-25.527ZM4.644,11.081,7,16.485H1.8Zm3.8,5.4L5.707,10.219H29.4l2.733,6.266ZM5.36,2.742A1.425,1.425,0,0,1,6.783,1.319H27.747A1.425,1.425,0,0,1,29.17,2.742V8.9H5.36ZM31.073,43.688H8.69V17.861H32.5v24.4a1.431,1.431,0,0,1-1.43,1.43Zm0,0" transform="translate(0)" fill="#fff"/>
      <path id="Caminho_133" data-name="Caminho 133" d="M135.791,241.766a9.494,9.494,0,1,0,9.494,9.494A9.5,9.5,0,0,0,135.791,241.766Zm0,17.669a8.175,8.175,0,1,1,8.175-8.175A8.184,8.184,0,0,1,135.791,259.435Zm0,0" transform="translate(-115.194 -220.514)" fill="#fff"/>
      <path id="Caminho_134" data-name="Caminho 134" d="M200.956,313.585h4.659a.659.659,0,1,0,0-1.319h-4.659a.659.659,0,1,0,0,1.319Zm0,0" transform="translate(-182.69 -284.817)" fill="#fff"/>
      <path id="Caminho_135" data-name="Caminho 135" d="M165.956,342.266a.659.659,0,1,0,0,1.319h10.812a.659.659,0,1,0,0-1.319Zm0,0" transform="translate(-150.766 -312.18)" fill="#fff"/>
      <path id="Caminho_136" data-name="Caminho 136" d="M205.615,372.266h-4.659a.659.659,0,1,0,0,1.319h4.659a.659.659,0,1,0,0-1.319Zm0,0" transform="translate(-182.69 -339.542)" fill="#fff"/>
      <path id="Caminho_137" data-name="Caminho 137" d="M122.6,29.625h-2.2a.659.659,0,0,0,0,1.319h2.2a1.187,1.187,0,0,1,0,2.373H112.4a1.187,1.187,0,1,1,0-2.373h5.534a.659.659,0,0,0,0-1.319H112.4a2.505,2.505,0,1,0,0,5.01h10.2a2.505,2.505,0,1,0,0-5.01Zm0,0" transform="translate(-100.237 -27.021)" fill="#fff"/>
    </g>
    <g id="Elipse_40" data-name="Elipse 40" transform="translate(122 237)" fill="none" stroke="#fff" stroke-width="3">
      <ellipse cx="37.5" cy="38.5" rx="37.5" ry="38.5" stroke="none"/>
      <ellipse cx="37.5" cy="38.5" rx="36" ry="37" fill="none"/>
    </g>
  </g>
</svg>
