<svg xmlns="http://www.w3.org/2000/svg" width="43.084" height="31.784" viewBox="0 0 43.084 31.784">
  <g id="granolaRoxo" transform="translate(-0.75 -0.733)">
    <path id="Caminho_72" data-name="Caminho 72" d="M-660.438,1020.622s-.635-13,17.8-21.472c0,0,5.579-2.366,8.971,1.483.114.129,2.67,3.651,2.692,3.822.089.653,2.586,3.9-.361,8.477-3.32,5.154-15.611,8.759-15.611,8.759A23.908,23.908,0,0,1-660.438,1020.622Z" transform="translate(673.028 -990.456)" fill="none" stroke="#25083b" stroke-linecap="round" stroke-linejoin="round" stroke-width="1.5"/>
    <path id="Caminho_73" data-name="Caminho 73" d="M-692.01,990.09s-8.687-1.323-13.28-8.529a26.732,26.732,0,0,1,18.083-9.25s12.57-.92,13.984,4.519C-673.223,976.83-685.583,978.914-692.01,990.09Z" transform="translate(706.79 -970.75)" fill="none" stroke="#25083b" stroke-linecap="round" stroke-linejoin="round" stroke-width="1.5"/>
    <path id="Caminho_74" data-name="Caminho 74" d="M-642.57,1033.472a25.016,25.016,0,0,1,2.284-1.824,18.015,18.015,0,0,1,2.536-1.525,7,7,0,0,1,.724-.292,2.615,2.615,0,0,1,.892-.151l.274-.017.309-.059c.208-.04.433-.114.648-.171a23.413,23.413,0,0,0,2.618-1.016,55.231,55.231,0,0,0,5.083-2.6c1.661-.944,3.278-1.978,4.9-3.05a24.954,24.954,0,0,1-4.38,3.871,29.879,29.879,0,0,1-5.1,2.907,18.893,18.893,0,0,1-2.8,1.011c-.247.054-.494.121-.761.158-.138.017-.267.04-.408.052h-.462a1.729,1.729,0,0,0-.534.059,6.224,6.224,0,0,0-.64.193,25.1,25.1,0,0,0-2.6,1.15C-640.845,1032.587-641.687,1033.036-642.57,1033.472Z" transform="translate(659.575 -1008.779)" fill="#25083b"/>
    <path id="Caminho_75" data-name="Caminho 75" d="M-639.86,1021.861a26.125,26.125,0,0,1,4.38-3.6l.6-.388c.2-.128.41-.247.616-.366.408-.247.833-.462,1.256-.69a19.345,19.345,0,0,1,2.665-1.1,14.246,14.246,0,0,1,1.412-.368c.465-.106.907-.185,1.357-.294.9-.188,1.787-.467,2.675-.742a34.607,34.607,0,0,0,5.172-2.131,18.949,18.949,0,0,1-4.907,2.858c-.44.183-.887.351-1.34.494l-.682.222-.69.2c-.455.134-.939.22-1.387.334a13.527,13.527,0,0,0-1.31.363,27.556,27.556,0,0,0-5.033,2.257C-636.7,1019.821-638.288,1020.815-639.86,1021.861Z" transform="translate(657.535 -1000.807)" fill="#25083b"/>
    <path id="Caminho_76" data-name="Caminho 76" d="M-608.71,1009.22a4.389,4.389,0,0,1,.813-.952,6.69,6.69,0,0,1,1.011-.756,9.117,9.117,0,0,1,2.309-1.016l1.2-.314c.4-.1.786-.22,1.172-.344a11.5,11.5,0,0,0,1.14-.435,3.887,3.887,0,0,0,1.043-.633,3.036,3.036,0,0,1-.927.845,7.731,7.731,0,0,1-1.117.581,11.222,11.222,0,0,1-1.179.435c-.4.121-.808.225-1.192.339a12.618,12.618,0,0,0-2.257.875,9.451,9.451,0,0,0-1.051.613A6.47,6.47,0,0,0-608.71,1009.22Z" transform="translate(634.085 -995.229)" fill="#25083b"/>
    <path id="Caminho_77" data-name="Caminho 77" d="M-619.86,1047a52.351,52.351,0,0,0,5.139-2.638,18.19,18.19,0,0,0,4.415-3.478l.232-.247.2-.277c.136-.188.265-.356.408-.561l.433-.618c.146-.205.311-.393.472-.586a13.6,13.6,0,0,1,2.175-2.044,16.566,16.566,0,0,1,2.509-1.557,14.24,14.24,0,0,1,2.734-1.053,23.783,23.783,0,0,0-2.489,1.483,22.324,22.324,0,0,0-2.264,1.73,15.423,15.423,0,0,0-1.941,2.04c-.138.19-.3.363-.425.556l-.391.576-.435.62-.222.314-.247.287c-.173.185-.339.378-.519.556l-.556.494a7.006,7.006,0,0,1-.576.48c-.2.151-.388.316-.6.45-.413.277-.821.559-1.251.8s-.858.494-1.3.71A23.736,23.736,0,0,1-619.86,1047Z" transform="translate(642.479 -1017.188)" fill="#25083b"/>
    <path id="Caminho_78" data-name="Caminho 78" d="M-580.71,1052.909l2.316-1.619c.376-.277.761-.541,1.125-.833a9.945,9.945,0,0,0,1.043-.9c.163-.158.287-.314.46-.512a5.683,5.683,0,0,1,.514-.522,11.684,11.684,0,0,1,1.125-.89,16.516,16.516,0,0,1,2.457-1.434c-.742.578-1.5,1.147-2.225,1.73-.358.3-.714.6-1.041.925-.163.161-.324.324-.467.494s-.3.376-.475.546a12.621,12.621,0,0,1-2.309,1.706A19.654,19.654,0,0,1-580.71,1052.909Z" transform="translate(613.007 -1026.417)" fill="#25083b"/>
    <path id="Caminho_79" data-name="Caminho 79" d="M-635.86,1062.852c.225-.168.428-.359.643-.536s.433-.356.66-.522a10.1,10.1,0,0,1,1.454-.878,11.353,11.353,0,0,1,1.577-.645c.27-.087.544-.166.818-.232s.551-.131.831-.188l.8-.163c.262-.052.517-.134.779-.2a11.512,11.512,0,0,0,1.506-.566,8.739,8.739,0,0,0,2.657-1.866,6.179,6.179,0,0,1-2.388,2.378,8.858,8.858,0,0,1-1.562.722c-.272.084-.546.176-.826.247s-.569.126-.828.178a18.55,18.55,0,0,0-3.132.865,15.7,15.7,0,0,0-1.5.66c-.247.116-.494.247-.742.381A6.1,6.1,0,0,1-635.86,1062.852Z" transform="translate(654.523 -1034.593)" fill="#25083b"/>
    <path id="Caminho_80" data-name="Caminho 80" d="M-647.57,1069.963l.658-.413q.329-.205.653-.415c.43-.287.858-.573,1.268-.88a10.985,10.985,0,0,0,1.177-.989,4.8,4.8,0,0,0,.512-.566l.22-.314c.054-.116.114-.23.175-.346a3.007,3.007,0,0,1-.769,1.357,7.329,7.329,0,0,1-1.167,1.051,11.883,11.883,0,0,1-1.318.843,10.785,10.785,0,0,1-1.409.672Z" transform="translate(663.339 -1041.353)" fill="#25083b"/>
    <path id="Caminho_81" data-name="Caminho 81" d="M-664.732,1001.893c-.9.03-1.792,0-2.68-.049-.445-.022-.885-.054-1.332-.094s-.9-.1-1.345-.176a18.61,18.61,0,0,1-2.63-.66,15.325,15.325,0,0,1-2.507-1.07l.111.037a9.057,9.057,0,0,0-1.011-.153,8.565,8.565,0,0,0-1.041-.047c-.351,0-.7.012-1.058.04s-.707.069-1.065.126a6.735,6.735,0,0,1,1.014-.4,9.18,9.18,0,0,1,1.065-.247,9.021,9.021,0,0,1,1.1-.121,7.411,7.411,0,0,1,1.122.037.124.124,0,0,1,.052,0l.062.022c.786.312,1.624.593,2.452.84s1.671.48,2.519.675c.425.1.85.19,1.278.277s.87.173,1.3.274C-666.455,1001.4-665.59,1001.618-664.732,1001.893Z" transform="translate(687.217 -990.94)" fill="#25083b"/>
    <path id="Caminho_82" data-name="Caminho 82" d="M-668.43,991.06" transform="translate(679.042 -984.908)" fill="none" stroke="#25083b" stroke-linecap="round" stroke-linejoin="round" stroke-width="1"/>
    <path id="Caminho_83" data-name="Caminho 83" d="M-668.609,987.875a6.431,6.431,0,0,1,1-.423,9.629,9.629,0,0,1,1.036-.294c.349-.079.7-.146,1.058-.193a6.456,6.456,0,0,1,1.07-.069c.722,0,1.439.148,2.148.18s1.419.035,2.143.044a8.045,8.045,0,0,1,1.09.062c.183.022.363.044.544.084l.539.131c.368.086.685.2,1.026.3s.67.215,1,.331c1.318.494,2.606,1.043,3.893,1.671h0a.05.05,0,0,1,.025.029.05.05,0,0,1,0,.038.047.047,0,0,1-.044.027,10.849,10.849,0,0,1-2.146-.247,20.247,20.247,0,0,1-2.067-.527q-.507-.158-1-.356l-.494-.2-.247-.1-.247-.087-.475-.176c-.158-.059-.326-.094-.494-.153s-.326-.114-.494-.161l-.494-.141a7.107,7.107,0,0,0-2.076-.262,16.415,16.415,0,0,0-2.081.321c-.687.109-1.379.156-2.077.2-.351.022-.7.042-1.053.049s-.709.017-1.073,0a.047.047,0,0,1-.037-.015.047.047,0,0,1-.013-.037A.054.054,0,0,1-668.609,987.875Z" transform="translate(679.208 -981.773)" fill="#25083b"/>
    <path id="Caminho_84" data-name="Caminho 84" d="M-627.29,981.218a6.454,6.454,0,0,1,2.472-.509,7.217,7.217,0,0,1,1.281.1,6.008,6.008,0,0,1,1.236.363,21.1,21.1,0,0,0,2.272.821,22.618,22.618,0,0,0,2.381.583,8.813,8.813,0,0,1-2.5-.067,11.412,11.412,0,0,1-2.423-.66l-.272-.1-.279-.082c-.183-.067-.378-.094-.566-.148-.383-.077-.771-.146-1.167-.188A21.246,21.246,0,0,0-627.29,981.218Z" transform="translate(648.072 -977.115)" fill="#25083b"/>
    <path id="Caminho_85" data-name="Caminho 85" d="M-682.14,1016.734a11.231,11.231,0,0,1,2.793-.178,8.56,8.56,0,0,1,1.407.2,5.745,5.745,0,0,1,1.352.494,5.765,5.765,0,0,0,1.236.47,12.527,12.527,0,0,0,1.332.284c.9.151,1.819.247,2.749.312a12.177,12.177,0,0,1-2.8.072,7.465,7.465,0,0,1-2.759-.7,7.493,7.493,0,0,0-2.566-.756A24.66,24.66,0,0,0-682.14,1016.734Z" transform="translate(689.363 -1004.085)" fill="#25083b"/>
    <path id="Caminho_86" data-name="Caminho 86" d="M-673,1029.91l1.822.331c.6.1,1.2.2,1.8.247.151.025.3.035.45.047s.3.03.452.032l.452.022h.457a8.139,8.139,0,0,0,1.81-.232,4.331,4.331,0,0,1-1.777.615,7.671,7.671,0,0,1-1.891,0,10.271,10.271,0,0,1-1.839-.378A8.639,8.639,0,0,1-673,1029.91Z" transform="translate(682.482 -1014.154)" fill="#25083b"/>
  </g>
</svg>
