<svg xmlns="http://www.w3.org/2000/svg" width="41.045" height="43.361" viewBox="0 0 41.045 43.361">
  <g id="kiwiBranco" transform="translate(-1509.708 -597.317)">
    <ellipse id="Elipse_29" data-name="Elipse 29" cx="16.529" cy="13.366" rx="16.529" ry="13.366" transform="translate(1510.391 626.629) rotate(-60)" fill="none" stroke="#fff" stroke-linecap="round" stroke-linejoin="round" stroke-width="1"/>
    <path id="Caminho_87" data-name="Caminho 87" d="M658,885.489a1.476,1.476,0,1,1,2.9-.042c.013.965-.6,3.445-1.4,3.457C658.649,888.917,658.008,886.454,658,885.489Z" transform="translate(873.731 -276.172)" fill="#fff"/>
    <path id="Caminho_88" data-name="Caminho 88" d="M688.581,899.373a1.476,1.476,0,1,1,2.331,1.729c-.576.775-2.569,2.377-3.213,1.9C687.021,902.494,688.006,900.148,688.581,899.373Z" transform="translate(848.151 -289.078)" fill="#fff"/>
    <path id="Caminho_89" data-name="Caminho 89" d="M626.032,895.647a1.476,1.476,0,1,1,2.607-1.276c.424.868.924,3.373.207,3.725C628.091,898.469,626.457,896.516,626.032,895.647Z" transform="translate(901.657 -284.497)" fill="#fff"/>
    <path id="Caminho_90" data-name="Caminho 90" d="M598.285,920.267a1.477,1.477,0,1,1,2-2.1c.7.665,2.04,2.841,1.488,3.422C601.191,922.2,598.984,920.933,598.285,920.267Z" transform="translate(926.09 -305.593)" fill="#fff"/>
    <path id="Caminho_91" data-name="Caminho 91" d="M579.761,951.8a1.476,1.476,0,1,1,.589-2.842c.95.2,3.233,1.334,3.07,2.113C583.249,951.907,580.706,952,579.761,951.8Z" transform="translate(942.888 -332.759)" fill="#fff"/>
    <path id="Caminho_92" data-name="Caminho 92" d="M574.755,987.74a1.477,1.477,0,1,1-.691-2.819c.938-.23,3.493-.186,3.683.593C577.948,986.335,575.693,987.511,574.755,987.74Z" transform="translate(947.786 -363.904)" fill="#fff"/>
    <path id="Caminho_93" data-name="Caminho 93" d="M583.442,1013.434a1.476,1.476,0,1,1-1.812-2.266c.755-.6,3.089-1.639,3.589-1.013C585.749,1010.816,584.2,1012.831,583.442,1013.434Z" transform="translate(940.65 -385.742)" fill="#fff"/>
    <path id="Caminho_94" data-name="Caminho 94" d="M615.328,1020.033a1.476,1.476,0,1,1-2.884-.313c.107-.959,1.025-3.344,1.822-3.255C615.108,1016.55,615.435,1019.074,615.328,1020.033Z" transform="translate(913.28 -391.385)" fill="#fff"/>
    <path id="Caminho_95" data-name="Caminho 95" d="M648.206,1015.38a1.477,1.477,0,1,1-2.586,1.319c-.439-.861-.983-3.356-.264-3.72C646.1,1012.594,647.768,1014.523,648.206,1015.38Z" transform="translate(885.006 -388.319)" fill="#fff"/>
    <path id="Caminho_96" data-name="Caminho 96" d="M672.543,995.616a1.477,1.477,0,1,1-2.069,2.036c-.676-.688-1.947-2.905-1.376-3.468C669.7,993.59,671.865,994.927,672.543,995.616Z" transform="translate(864.222 -371.921)" fill="#fff"/>
    <path id="Caminho_97" data-name="Caminho 97" d="M687.029,968.029a1.476,1.476,0,1,1-1.041,2.709c-.9-.346-2.975-1.844-2.687-2.587C683.605,967.361,686.129,967.683,687.029,968.029Z" transform="translate(851.792 -349.029)" fill="#fff"/>
    <path id="Caminho_98" data-name="Caminho 98" d="M691.968,936.744a1.477,1.477,0,1,1,.436,2.87c-.955.144-3.5-.132-3.616-.924C688.661,937.858,691.013,936.889,691.968,936.744Z" transform="translate(847.012 -322.174)" fill="#fff"/>
  </g>
</svg>
