<svg xmlns="http://www.w3.org/2000/svg" width="37.529" height="37.19" viewBox="0 0 37.529 37.19">
  <g id="leiteNinhoBranco" transform="translate(-0.5 0.044)">
    <path id="Caminho_102" data-name="Caminho 102" d="M-582,1035.57v5.2s2.715,10.008,11.637,10.784,12.565,0,12.565,0a16.13,16.13,0,0,0,11.327-11.017v-4.963Z" transform="translate(583.5 -1015.79)" fill="none" stroke="#fff" stroke-linecap="round" stroke-linejoin="round" stroke-width="2"/>
    <path id="Caminho_103" data-name="Caminho 103" d="M-576.86,1019.31v-1.238s.081-2.1,2.948-3.106c0,0,.31-3.258,2.949-3.258h3.8s1.705.7,1.086,1.787c0,0,1.553-1.629,2.1-.934a3.39,3.39,0,0,1,3.128-2.514,1.246,1.246,0,0,1,.348,0c.7.168,3.2.88,2.715,2.416l2.015.157,8.1-11.892a1.58,1.58,0,0,1,1.086-.679c1.184-.179,3.3-.136,2.449,2.715l-7.217,9.313s2.172.853,1.553,2.248c0,0,3.258-.076,2.639,2.639,0,0,2.248.385,1.547,2.324" transform="translate(581.151 -999.53)" fill="none" stroke="#fff" stroke-linecap="round" stroke-linejoin="round" stroke-width="1"/>
    <path id="Caminho_104" data-name="Caminho 104" d="M48.613,22.75l-2.949,3.8-3.025-.386,1.553-2.873" transform="translate(-18.801 -10.187)" fill="none" stroke="#fff" stroke-linecap="round" stroke-linejoin="round" stroke-width="1"/>
    <circle id="Elipse_31" data-name="Elipse 31" cx="0.619" cy="0.619" r="0.619" transform="translate(10.813 14.817)" stroke-width="1" stroke="#fff" stroke-linecap="round" stroke-linejoin="round" fill="none"/>
    <circle id="Elipse_32" data-name="Elipse 32" cx="0.581" cy="0.581" r="0.581" transform="translate(13.251 16.641)" stroke-width="1" stroke="#fff" stroke-linecap="round" stroke-linejoin="round" fill="none"/>
    <ellipse id="Elipse_33" data-name="Elipse 33" cx="0.608" cy="0.331" rx="0.608" ry="0.331" transform="translate(28.053 17.559)" fill="none" stroke="#fff" stroke-linecap="round" stroke-linejoin="round" stroke-width="1"/>
    <ellipse id="Elipse_34" data-name="Elipse 34" cx="0.842" cy="0.456" rx="0.842" ry="0.456" transform="translate(31.854 17.2)" fill="none" stroke="#fff" stroke-linecap="round" stroke-linejoin="round" stroke-width="1"/>
    <circle id="Elipse_35" data-name="Elipse 35" cx="0.348" cy="0.348" r="0.348" transform="translate(19.924 13.383)" stroke-width="1" stroke="#fff" stroke-linecap="round" stroke-linejoin="round" fill="none"/>
    <circle id="Elipse_36" data-name="Elipse 36" cx="0.489" cy="0.489" r="0.489" transform="translate(19.783 17.624)" stroke-width="1" stroke="#fff" stroke-linecap="round" stroke-linejoin="round" fill="none"/>
  </g>
</svg>
