<svg xmlns="http://www.w3.org/2000/svg" width="137.148" height="59.286" viewBox="0 0 137.148 59.286">
  <path id="logoBranco" d="M5.091,28.6a4.8,4.8,0,0,1-1.768-1.088A13.044,13.044,0,0,1,.2,23.544a4.339,4.339,0,0,1,.023-2.629A12.208,12.208,0,0,1,1.6,17.833a21.451,21.451,0,0,1,5.575-6.1c4.873-3.581,10.4-4.125,14.482,1.179a19.836,19.836,0,0,1,3.853,9.405A19.758,19.758,0,0,1,24.422,32.2c-.227.567-.476,1.133-.748,1.677A15.317,15.317,0,0,1,11.8,42.355a12.624,12.624,0,0,1-5.983-.839A8.874,8.874,0,0,1,1.08,36.553C.332,34.695.037,32.247,1.1,30.479A4.061,4.061,0,0,1,4.683,28.6ZM7.7,28.3c-.363.068-.7.159-1.065.227a4.6,4.6,0,0,1-.929.136,1.315,1.315,0,0,1,.929.657,2.948,2.948,0,0,1-.045,1.768,6.881,6.881,0,0,0-.227,2.04,4.661,4.661,0,0,0,1.088,2.833c1.5,1.677,4.011,1.7,5.938,1.179A8.971,8.971,0,0,0,19.3,32.61c1.949-3.649,1.677-8.589.839-12.578a35.169,35.169,0,0,0-.839-3.467,5.313,5.313,0,0,0-1.224-2.221c-1.133-1.042-2.856-.725-4.147-.34a11.5,11.5,0,0,0-3.422,1.949A22.42,22.42,0,0,0,8.286,17.9a14.424,14.424,0,0,0-1.518,1.791A8.7,8.7,0,0,0,5.431,22.5a3.688,3.688,0,0,0-.023,1.858,1.526,1.526,0,0,0,1.609,1.224,1.327,1.327,0,0,0,.612-.317c.5-.476.612-2.175.657-2.878.045-.839.023-1.7.068-2.538a9.441,9.441,0,0,1,.159-1.609,1.293,1.293,0,0,1,.521-.929,2.446,2.446,0,0,1,1.337-.181,2.969,2.969,0,0,1,2.584,1.088,3.83,3.83,0,0,1,.521,2.175A19.655,19.655,0,0,1,13.2,23.2c-.159,1.133-.34,2.266-.453,3.4a24.816,24.816,0,0,0-.113,3.9c.045.929.159,1.881.227,2.81a15.05,15.05,0,0,1-.023,3.2.506.506,0,0,1-.408.431c-1.564.181-3.6.159-4.555-1.5-.816-1.45-.5-3.671-.317-5.258C7.584,29.573,7.652,28.938,7.7,28.3Zm21.87-17.315a3.491,3.491,0,0,1,3.059,2.266,5.993,5.993,0,0,1-1,5.054.353.353,0,0,1-.295.181,3.514,3.514,0,0,1-1.813-.091c-.408-.159-.793-.408-1.178-.589a.512.512,0,0,1-.272-.362,8.68,8.68,0,0,1-.136-4.374A4.825,4.825,0,0,1,29.227,11.1.375.375,0,0,1,29.567,10.989Zm8.363,21.6a3.927,3.927,0,0,0,3.1-2.9,9.927,9.927,0,0,0,.476-2.334,7.741,7.741,0,0,0,0-1.45,4.641,4.641,0,0,0-1.269-.7,3,3,0,0,0-1.088-.136,11.964,11.964,0,0,0-1.813.181,12.391,12.391,0,0,1-1.79.2,1.37,1.37,0,0,1-1.133-.34,2.281,2.281,0,0,1-.476-1.337c-.091-.725-.159-1.428-.272-2.153a.507.507,0,0,1,.113-.431A13.047,13.047,0,0,1,38.2,17.561a17.9,17.9,0,0,1,2.017-.929,3.419,3.419,0,0,1,1.564-.227,5.178,5.178,0,0,1,2.4,1.224.586.586,0,0,1,.2.385,5.616,5.616,0,0,1-.045,2.13,7.254,7.254,0,0,1-.612,1.179.415.415,0,0,1-.5.2,7.787,7.787,0,0,1-1.269-.5,4.078,4.078,0,0,0-.861-.363,1.62,1.62,0,0,0-.929,0,4.481,4.481,0,0,0-.7.272c.5.136,1,.2,1.518.317a5.987,5.987,0,0,1,3.241,1.677,4.53,4.53,0,0,1,.907,1.224,6.977,6.977,0,0,1,.612,4.193,9.029,9.029,0,0,1-1.813,4.238,7.916,7.916,0,0,1-3.989,2.765,9.443,9.443,0,0,1-5.6-.2,5.454,5.454,0,0,1-1.632,1.36,4.544,4.544,0,0,1-3.218-.295,4.34,4.34,0,0,1-2.538-2.13,8.834,8.834,0,0,1-.635-4.215c.068-1.632.249-3.241.295-4.85q.034-1.36.136-2.72a27.492,27.492,0,0,1,.363-3.059.486.486,0,0,1,.5-.408,8.639,8.639,0,0,1,2.606.657,10.95,10.95,0,0,1,1.564.929.518.518,0,0,1,.227.476l-.34,6.323c-.045,1.133-.023,2.312.023,3.445a26.054,26.054,0,0,0,.181,2.629,1.4,1.4,0,0,0,.589-.612,2.232,2.232,0,0,0,.159-.861c.023-.476.023-.975.023-1.473a10.45,10.45,0,0,1,.431-2.629c.091-.295.181-.589.272-.861a2.625,2.625,0,0,1,.136-.385.818.818,0,0,1,.136-.453.478.478,0,0,1,.363-.295,4.874,4.874,0,0,1,4.351,1.587.532.532,0,0,1,.159.317,5.425,5.425,0,0,1-.249,2.561,13.135,13.135,0,0,0-.34,1.269A9.555,9.555,0,0,0,37.929,32.587ZM52.864,25.38c-.159,0-.34-.023-.5-.023h-.181a.286.286,0,0,1-.023.136,6.19,6.19,0,0,1-.113.635L51.074,32.5c0,.045-.023.068-.023.113a2.017,2.017,0,0,1-.906,1.11,2.383,2.383,0,0,1-1.586.2,3.15,3.15,0,0,1-1.9-1.133,8.407,8.407,0,0,1-.567-3.037c-.091-1.518-.091-3.082-.045-4.6.023-1.473.091-2.923.181-4.4.045-.929.091-1.881.181-2.81.113-1.383.2-2.765.317-4.147q.1-1.394.272-2.787a18.148,18.148,0,0,1,.363-2.176.461.461,0,0,1,.453-.385,7.087,7.087,0,0,1,4.329,1.428.586.586,0,0,1,.2.385,13.156,13.156,0,0,1-.068,2.674c-.091.975-.249,1.949-.408,2.924-.136.975-.295,1.972-.385,2.969l-.068.884c.2-.385.385-.771.567-1.156a10.881,10.881,0,0,1,2.38-3.581.5.5,0,0,1,.249-.113c1.586-.091,2.833.136,3.807,1.655.023.023.023.045.045.068.521,1.269-.295,5.054-.657,6.436a.481.481,0,0,1-.408.385,8.77,8.77,0,0,1-1.088,0,3.49,3.49,0,0,1,.657.521,3.73,3.73,0,0,1,.612,1.36c.159.612.295,1.247.431,1.881.091.453.181.907.272,1.337l.068.272a7.4,7.4,0,0,0,.907-1.451,15.855,15.855,0,0,0,1.02-2.674c.091-.362.181-.7.249-1.065a5.617,5.617,0,0,0,.068-.612.826.826,0,0,1,.113-.476c.023-.023.023-.045.045-.068a.421.421,0,0,1,.589-.227,2.832,2.832,0,0,1,1.36,1.4,5.836,5.836,0,0,1-.159,3.921,11.626,11.626,0,0,1-1.677,3.2,5.384,5.384,0,0,1-4.283,2.244,3.149,3.149,0,0,1-3.15-1.269,6.865,6.865,0,0,1-.567-3.717c.023-.567.068-1.133.068-1.7C52.91,26.037,52.887,25.7,52.864,25.38Zm.952-2.7a6.792,6.792,0,0,1-.431-.227v.023A1.259,1.259,0,0,0,53.816,22.683ZM128.581,6.661a6.736,6.736,0,0,1-4.17-.113c-1.269-.385-3.286-1.269-3.853-2.72a.545.545,0,0,1,.045-.5.455.455,0,0,1,.408-.227c.453.023.929,0,1.405-.023.567-.045,1.11-.068,1.677-.113a15.287,15.287,0,0,1,2.7.023,2.7,2.7,0,0,1,2.017,1.043,2.688,2.688,0,0,1,.023,2.357A.49.49,0,0,1,128.581,6.661ZM104.558,30.978a1.577,1.577,0,0,0-.68-.431,2.976,2.976,0,0,0-1,.045c-.635.113-1.246.227-1.881.295a.436.436,0,0,1-.408-.181c-.408-.521-.725-1.088-1.111-1.677a5.452,5.452,0,0,0-1.02-1.246c-3.377-3.06-3.535-7.977-1.994-12.193a9.744,9.744,0,0,1,2.7-4.238,4.318,4.318,0,0,1,3.037-1,5.242,5.242,0,0,1,2.448.816,3.349,3.349,0,0,1,1.269,1.246,1.886,1.886,0,0,1-.091,1.836c-.657.816-2.04.431-3.014.295a35.238,35.238,0,0,0-1.677,4.4,15.025,15.025,0,0,0-.657,3.309c-.068,1.02.023,2.4.929,2.969a2.322,2.322,0,0,0,1.858.159,5.429,5.429,0,0,0,2.2-1.224,6.413,6.413,0,0,0,1.156-1.314,4.56,4.56,0,0,0,.793-2.312c.045-.589,0-1.2,0-1.791a11.61,11.61,0,0,1,.2-2.334c.227-1.224.453-2.538.793-3.717A6.06,6.06,0,0,1,109.68,10.2a5.2,5.2,0,0,1,3.694-1.36c1.428-.068,2.493,0,3.263,1.519a.6.6,0,0,1,0,.521,5.94,5.94,0,0,1,1.677.317,13.168,13.168,0,0,1,1.5.748.472.472,0,0,1,.249.362,19.469,19.469,0,0,1,.045,4.873,16.039,16.039,0,0,0,.159,4.986,4.377,4.377,0,0,0,1.314-2.334,9.689,9.689,0,0,0,.295-2.674c.023-1.246,0-2.47,0-3.694a15.477,15.477,0,0,1,.838-5.688.439.439,0,0,1,.385-.295,5.627,5.627,0,0,1,2.969.567c.295.136.612.295.907.431a.459.459,0,0,1,.272.408,11.7,11.7,0,0,1,.068,1.541c0,.7-.023,1.383-.045,2.085-.068,1.7-.136,3.377-.136,5.076a39.831,39.831,0,0,0,.159,4.011,2.376,2.376,0,0,0,.816-.884,11.815,11.815,0,0,0,.725-3.49,8.3,8.3,0,0,1,.725-2.561.407.407,0,0,1,.612-.181,3.328,3.328,0,0,1,1.541,1.564,5.733,5.733,0,0,1-.113,2.9c-.453,2.289-1.382,5.485-3.739,6.051a4.687,4.687,0,0,1-2.606-.272,17.7,17.7,0,0,1-2.221-1.02,3.935,3.935,0,0,1-2.765,2.04c-1.677.2-3.354-.975-4.646-2.2l-.136.544a4.993,4.993,0,0,1-.952,1.972c-1.632,1.881-4.261.68-6.006-.431a7.827,7.827,0,0,0-1,.771,10.522,10.522,0,0,1-1.745,1.292,10.326,10.326,0,0,1-1.632.68.812.812,0,0,0,.249.045,5.237,5.237,0,0,1,1.836.657,4.785,4.785,0,0,1,1.677,3.513.52.52,0,0,1-.159.476c-.408.34-.793.68-1.224.974a8.1,8.1,0,0,1-5.054,1.314c-1.269-.023-3.127-.136-4.011-1.314a3.422,3.422,0,0,1-.317-2.9.483.483,0,0,1,.385-.385,5.288,5.288,0,0,1,1.337-.045.939.939,0,0,1,.725.476c.091.159.091.317.227.408a4.763,4.763,0,0,0,1.677.385A3.628,3.628,0,0,0,104.558,30.978Zm10.878-19.286c-.159.068-.295.136-.453.2a2.444,2.444,0,0,0-.952,1.02c-1.179,2.04-1.405,6.142-1.156,8.974a18.347,18.347,0,0,0,1.586-5.462c.159-.907.317-1.813.5-2.719C115.1,13.029,115.255,12.349,115.437,11.692ZM81.4,20.326c-1.9-1.791-5.62-1.722-7.909-1.519a.45.45,0,0,1-.363-.159.632.632,0,0,1-.136-.408,7.337,7.337,0,0,1,2.062-3.649,5.02,5.02,0,0,1,3.241-1.7A6.321,6.321,0,0,1,81.85,14.23c.476.34.929.7,1.405,1.065.295.226.612.453.907.657.249-.317.453-.657.68-1,.363-.589.725-1.224,1.043-1.836.816-1.519,1.541-3.06,2.244-4.646C88.785,7,89.42,5.527,90.009,4.054,90.462,2.9,90.915,1.72,91.3.542A.5.5,0,0,1,91.663.2,10.462,10.462,0,0,1,94.179.02a2.361,2.361,0,0,1,1.654.725,3.113,3.113,0,0,1,.657,1.949,16.449,16.449,0,0,1-.159,2.991c-.159,1.473-.385,2.923-.567,4.374-.272,2.017-.521,4.034-.725,6.051-.136,1.246-.2,2.47-.249,3.717s-.068,2.493-.091,3.762q-.034,1.87-.068,3.739a6.666,6.666,0,0,0,0,.952c.023.045.068.091.091.136a3.692,3.692,0,0,1,.249.385,10.657,10.657,0,0,1,.725,1.9.521.521,0,0,1-.113.544,4.525,4.525,0,0,1-3.558,1.745c-1.586-.2-2.629-1.768-3.263-3.263-.272-.657-.521-1.315-.816-1.949a13.837,13.837,0,0,0-.839-1.632l-1.836-2.629c-.068.023-.136.068-.2.091a5.9,5.9,0,0,1-.476.816c-.249.362-.476.77-.725,1.133-.544.839-1.111,1.654-1.677,2.47-.317.431-.635.884-.952,1.292-1.836,2.425-4.1,4.782-6.844,5.847a9.153,9.153,0,0,1-8.249-1c-4.623-2.72-3.921-8.2-.816-11.989A8.455,8.455,0,0,1,69,19.442a4.688,4.688,0,0,1,3.286.091,6.2,6.2,0,0,1,2.4,1.722,5.794,5.794,0,0,1,1.224,2.153.485.485,0,0,1-.068.431.447.447,0,0,1-.34.227c-.748.068-1.5.136-2.221.181a7.131,7.131,0,0,0-1.518.272A4.862,4.862,0,0,0,69.7,26.06a6.671,6.671,0,0,0-1.79,4.963c.181-.023.363-.068.521-.091a14.2,14.2,0,0,0,4.691-2.062,26.537,26.537,0,0,0,5.1-4.487A36.79,36.79,0,0,0,81.4,20.326Zm5.8-.839a5.494,5.494,0,0,0,.453.793c.227.295.453.589.68.907.181.249.34.521.5.793.068.136.159.272.227.408a.6.6,0,0,0,.113.136l1.292-10.674c-.5.974-.929,1.972-1.36,2.991C88.445,16.36,87.81,17.924,87.2,19.488Z" transform="translate(5.729 0.555) rotate(7)" fill="none" stroke="#fff" stroke-linejoin="round" stroke-miterlimit="10" stroke-width="1" fill-rule="evenodd"/>
</svg>
