<svg xmlns="http://www.w3.org/2000/svg" width="224.493" height="113.382" viewBox="0 0 224.493 113.382">
  <g id="logo" transform="translate(-0.042 0.091)">
    <g id="Sun">
      <path id="Caminho_1" data-name="Caminho 1" d="M345.71,534.21a2.491,2.491,0,0,0-.1,1h8.65a1.781,1.781,0,0,0,.53-.16,3.65,3.65,0,0,0,1.42-1H346.4C346,534,345.8,534.06,345.71,534.21Z" transform="translate(-278.54 -478.01)" fill="#ab110b"/>
      <path id="Caminho_2" data-name="Caminho 2" d="M381.67,513.91v-5c0-.8.09-1.75.16-2.7a3.512,3.512,0,0,0-.34-.47c-.9.16-1.61.27-2.12.35a8.5,8.5,0,0,1-1,.12h-.66a1.22,1.22,0,0,0-.37,0v-.47a21.786,21.786,0,0,0,4.15-3.68A56.709,56.709,0,0,0,370,489.94l.33,3.07a7.25,7.25,0,0,1-3.64,6.72,14,14,0,0,1-7.19,1.66h-3.29a21.778,21.778,0,0,1-5.46-.85q-3.22-.84-6.43-1.77a.74.74,0,0,0-.72.33,1.59,1.59,0,0,0-.18.77v2c0,2.05.23,3.3.7,3.74l1.95.63H361a8.2,8.2,0,0,0,2.12-.88,6.87,6.87,0,0,1,2.75-.88,4,4,0,0,1,1.59.6,12.35,12.35,0,0,1,2.65,2v.67H339a3.05,3.05,0,0,1-2.78-1.1,5.22,5.22,0,0,1-.5-2.68v-7.46a1.26,1.26,0,0,1,.65-1.08,1.16,1.16,0,0,0,.64-1l-.2-.5a2.75,2.75,0,0,1-.23-.8l12.33,2h4.21a22.474,22.474,0,0,0,4.41-.57,36.529,36.529,0,0,0,6.53-2,18.67,18.67,0,0,0,5.34-3.22A56.69,56.69,0,1,0,386.45,559a12.411,12.411,0,0,1-1.77-2.79A34.831,34.831,0,0,1,382,547c-.26-1.9-.52-3.81-.76-5.73a20.635,20.635,0,0,0-.7,3,23.657,23.657,0,0,1-1.22,3.86,18.073,18.073,0,0,1-2,3.76,23.643,23.643,0,0,0-2.08,3.18H377a4.07,4.07,0,0,0,1.93-1,4.509,4.509,0,0,1,1.69-1,12.506,12.506,0,0,1,1.26.83,5,5,0,0,1,1.75,2.19h-9.31a4.339,4.339,0,0,0-1.86,1.05,25.46,25.46,0,0,1-5.1,3.36c0-.07,1-1.19,2.88-3.38a21.83,21.83,0,0,0,3.58-5.62,24.66,24.66,0,0,0,1.76-9.63v-2.55a1.29,1.29,0,0,0-.73-1.29,4.841,4.841,0,0,0-2-.33H370.7a6.471,6.471,0,0,1-.83,0c-.42-.09-.63-.28-.63-.6,0-.12.1-.22.3-.31a1.761,1.761,0,0,1,.66-.12h10.57a1.91,1.91,0,0,0,.5-.93v-2.72a4.119,4.119,0,0,1,.5,1.56,5.811,5.811,0,0,0,.76,2.09h4.27a4.089,4.089,0,0,0,1.94-.88,4.24,4.24,0,0,1,1.71-.88c.46.37.82.66,1.06.87l.38.4V534.8a57.483,57.483,0,0,0-1-10.65,9.59,9.59,0,0,1-6.74-2.94,10.29,10.29,0,0,1-2.48-7.3Zm-19,20.83c.51.34,1.08.73,1.72,1.2a1.79,1.79,0,0,1-.44.51.861.861,0,0,1-.49.15c-.06,0-.4-.06-1-.17a8.251,8.251,0,0,0-1.4-.16,8.515,8.515,0,0,0-1.13.06,1.39,1.39,0,0,1-.88.45,11.867,11.867,0,0,1-2.27.15H347.9a4.051,4.051,0,0,0-1.56.33c-.75.31-1.13.73-1.13,1.26v4.68a2.9,2.9,0,0,0,1.56.43c.13,0,.86-.08,2.19-.22s2.31-.21,2.95-.21a20,20,0,0,1,7.49,2.18q3,1.7,3.05,4.11a3.66,3.66,0,0,1-1,2.6,3.31,3.31,0,0,1-2.51,1.08,5.15,5.15,0,0,1-3.94-2.12c-1-1.3-2-2.61-2.95-3.91a5.92,5.92,0,0,0-4.51-2.16h-1.95l-.17.3a8.679,8.679,0,0,0-.4,3.05V552a15.831,15.831,0,0,1-.82,4.34,20.65,20.65,0,0,1-2.52,5.53c-1.26,1.84-2.63,2.75-4.11,2.75a4.615,4.615,0,0,1-1-.1,13.809,13.809,0,0,0,1.37-3.77,18.12,18.12,0,0,0,.55-4.08v-18a3.35,3.35,0,0,0-2-.63c-.85,0-1.27-.27-1.27-.73s.12-.58.36-.66a3.3,3.3,0,0,1,1.09-.14,3.739,3.739,0,0,0,1.26-.13c.4-.18.6-.58.6-1.23,0-.9-.55-1.36-1.66-1.39s-1.65-.27-1.65-.76a.75.75,0,0,1,.29-.53,1,1,0,0,1,.7-.26h17a13.24,13.24,0,0,0,3-1.07A10.6,10.6,0,0,1,360,530.1a7.37,7.37,0,0,1,2.5,1.24c1.32.83,2,1.47,2,1.91,0,.27-.18.43-.56.48a9.067,9.067,0,0,1-1.39.09,1.29,1.29,0,0,0,.16.92Zm9.81-7.53-3.65-.8c-2.8-.6-5.34-1.09-7.62-1.49a46.462,46.462,0,0,0-6.63-.83H351.3a26.15,26.15,0,0,0-8.1,1.31c-2.69.87-5.35,1.77-8,2.69.35-1.08.7-2.15,1.06-3.21a14.57,14.57,0,0,1,2.85-4.87,7.67,7.67,0,0,1,5.8-2.51h5.9a20.476,20.476,0,0,1,3.91.78c2,.51,3.73,1,5.23,1.47.86.29,1.72.56,2.59.83.15,0,.31-.13.46-.4a1.37,1.37,0,0,0,.23-.69v-6.24a1.72,1.72,0,0,0-.54-1.17,1.51,1.51,0,0,0-1-.58h-24.9a1.21,1.21,0,0,1-.68-.38,1.06,1.06,0,0,1-.41-.68.71.71,0,0,1,.33-.68,1.58,1.58,0,0,1,.76-.18h31.32a2.25,2.25,0,0,1,2.07.92,5.83,5.83,0,0,1,.58,3v11.3c.09.13.18.27.27.43a9,9,0,0,0,2.58,2Z" transform="translate(-278.54 -478.01)" fill="#ab110b"/>
      <path id="Caminho_3" data-name="Caminho 3" d="M388.9,519.48a7.478,7.478,0,0,0,1.27,1.19,55.149,55.149,0,0,0-3.8-10.47v1Q386.37,516.57,388.9,519.48Z" transform="translate(-278.54 -478.01)" fill="#ab110b"/>
    </g>
    <g id="Circles">
      <path id="Caminho_4" data-name="Caminho 4" d="M312,536.9a16.56,16.56,0,0,1,16.52,15.67,20,20,0,0,1,3.09,2.8c.06-.62.1-1.26.1-1.9A19.59,19.59,0,0,0,308.8,534a19,19,0,0,1,1.35,3A15.8,15.8,0,0,1,312,536.9Z" transform="translate(-278.54 -478.01)" fill="#ab110b"/>
      <path id="Caminho_5" data-name="Caminho 5" d="M325.66,550.85a19,19,0,0,1,2.84,1.72A16.56,16.56,0,0,0,312,536.9a15.794,15.794,0,0,0-1.83.11,19.691,19.691,0,0,1,.75,2.58c.36,0,.71-.06,1.08-.06a13.93,13.93,0,0,1,13.66,11.32Z" transform="translate(-278.54 -478.01)" fill="#fff"/>
      <path id="Caminho_6" data-name="Caminho 6" d="M323.09,549.78a18.081,18.081,0,0,1,2.57,1.07A13.93,13.93,0,0,0,312,539.53a6.462,6.462,0,0,0-1.08.06c.15.72.26,1.45.34,2.2H312a11.72,11.72,0,0,1,11.09,7.99Z" transform="translate(-278.54 -478.01)" fill="#ab110b"/>
      <path id="Caminho_7" data-name="Caminho 7" d="M320.83,549.17a19.306,19.306,0,0,1,2.26.61,11.72,11.72,0,0,0-11.11-8h-.74c.05.61.09,1.23.09,1.86h.65a9.84,9.84,0,0,1,8.85,5.53Z" transform="translate(-278.54 -478.01)" fill="#fff"/>
      <path id="Caminho_8" data-name="Caminho 8" d="M318.87,548.87c.66.07,1.32.17,2,.3a9.84,9.84,0,0,0-8.85-5.56h-.65a10.2,10.2,0,0,1-.08,1.55h.73A8.28,8.28,0,0,1,318.87,548.87Z" transform="translate(-278.54 -478.01)" fill="#ab110b"/>
      <path id="Caminho_9" data-name="Caminho 9" d="M317.12,548.79a12.74,12.74,0,0,1,1.75.08,8.28,8.28,0,0,0-6.89-3.68h-.73a9.989,9.989,0,0,1-.15,1.34,8.3,8.3,0,0,1,.88-.06,6.93,6.93,0,0,1,5.14,2.32Z" transform="translate(-278.54 -478.01)" fill="#fff"/>
      <path id="Caminho_10" data-name="Caminho 10" d="M315.56,548.84c.44,0,.89-.07,1.34-.07h.22A6.93,6.93,0,0,0,312,546.5a8.3,8.3,0,0,0-.88.06c-.06.39-.11.78-.19,1.15a6.254,6.254,0,0,1,1.07-.1,5.81,5.81,0,0,1,3.56,1.23Z" transform="translate(-278.54 -478.01)" fill="#ab110b"/>
      <path id="Caminho_11" data-name="Caminho 11" d="M314,549c.51-.08,1-.13,1.53-.17a5.81,5.81,0,0,0-3.58-1.23,6.254,6.254,0,0,0-1.07.1c-.07.35-.17.69-.26,1a4.352,4.352,0,0,1,3.38.3Z" transform="translate(-278.54 -478.01)" fill="#fff"/>
      <path id="Caminho_12" data-name="Caminho 12" d="M312.23,549.35c.59-.14,1.19-.25,1.8-.34a4.861,4.861,0,0,0-2-.47,4.811,4.811,0,0,0-1.33.21c-.08.3-.15.6-.24.89a4.07,4.07,0,0,1,1.57-.31Z" transform="translate(-278.54 -478.01)" fill="#ab110b"/>
      <path id="Caminho_13" data-name="Caminho 13" d="M312,549.33a4.07,4.07,0,0,0-1.57.31c0,.1-.08.19-.11.29.63-.22,1.27-.42,1.93-.58Z" transform="translate(-278.54 -478.01)" fill="#fff"/>
      <path id="Caminho_14" data-name="Caminho 14" d="M291.62,527.1a16.54,16.54,0,0,1,15.65,22,19.4,19.4,0,0,1,.76,1.82,19.847,19.847,0,0,1,2.27-1,.864.864,0,0,1,.11-.29c.09-.29.16-.59.24-.89s.19-.69.26-1,.13-.76.19-1.15.12-.89.15-1.34.08-1,.08-1.55h0a12.738,12.738,0,0,0-.09-1.86c-.09-.61-.19-1.48-.34-2.2a19.693,19.693,0,0,0-.75-2.58,19,19,0,0,0-1.35-3,19.69,19.69,0,0,0-29.63-5.65c-.16,1.54-.24,3.1-.27,4.66A16.56,16.56,0,0,1,291.62,527.1Z" transform="translate(-278.54 -478.01)" fill="#ab110b"/>
      <path id="Caminho_15" data-name="Caminho 15" d="M291.62,529.73a13.84,13.84,0,0,1,13.74,16.19,19.809,19.809,0,0,1,1.91,3.16,16.56,16.56,0,0,0-28.37-16q0,.585,0,1.17c0,1.2.05,2.38.12,3.57a13.93,13.93,0,0,1,12.6-8.09Z" transform="translate(-278.54 -478.01)" fill="#fff"/>
      <path id="Caminho_16" data-name="Caminho 16" d="M291.62,532a11.71,11.71,0,0,1,11.71,11.6,19.875,19.875,0,0,1,2,2.359A13.93,13.93,0,0,0,279,537.79q.105,1.5.27,3c.39-.24.78-.47,1.19-.68A11.72,11.72,0,0,1,291.62,532Z" transform="translate(-278.54 -478.01)" fill="#ab110b"/>
      <path id="Caminho_17" data-name="Caminho 17" d="M291.62,532a11.72,11.72,0,0,0-11.17,8.16,19.2,19.2,0,0,1,2.46-1.06,9.86,9.86,0,0,1,18.39,2.77,22.325,22.325,0,0,1,2,1.73A11.71,11.71,0,0,0,291.62,532Z" transform="translate(-278.54 -478.01)" fill="#fff"/>
      <path id="Caminho_18" data-name="Caminho 18" d="M291.62,533.82a9.84,9.84,0,0,0-8.71,5.24,18.489,18.489,0,0,1,2.34-.68,8.28,8.28,0,0,1,14,2.12,20.838,20.838,0,0,1,2,1.33A9.86,9.86,0,0,0,291.62,533.82Z" transform="translate(-278.54 -478.01)" fill="#ab110b"/>
      <path id="Caminho_19" data-name="Caminho 19" d="M291.62,535.39a8.261,8.261,0,0,0-6.371,3,18,18,0,0,1,2.331-.381,6.93,6.93,0,0,1,9.55,1.43,18.572,18.572,0,0,1,2.14,1.07A8.29,8.29,0,0,0,291.62,535.39Z" transform="translate(-278.54 -478.01)" fill="#fff"/>
      <path id="Caminho_20" data-name="Caminho 20" d="M291.62,536.7a7,7,0,0,0-4,1.3c.64-.06,1.28-.1,1.93-.1h.89a6.079,6.079,0,0,1,1.22-.12,5.76,5.76,0,0,1,2.83.73,20.007,20.007,0,0,1,2.68.88,6.94,6.94,0,0,0-5.55-2.69Z" transform="translate(-278.54 -478.01)" fill="#ab110b"/>
      <path id="Caminho_21" data-name="Caminho 21" d="M290.4,537.94a20,20,0,0,1,4.05.61,5.76,5.76,0,0,0-2.83-.73,6.079,6.079,0,0,0-1.22.12Z" transform="translate(-278.54 -478.01)" fill="#fff"/>
      <path id="Caminho_22" data-name="Caminho 22" d="M328.5,552.57a19,19,0,0,0-2.84-1.72,18.091,18.091,0,0,0-2.57-1.07,19.291,19.291,0,0,0-2.26-.61,19.986,19.986,0,0,0-2-.3,15.735,15.735,0,0,0-1.75-.08h-.22a8.534,8.534,0,0,0-1.34.07c-.44.07-1,.09-1.53.17s-1.21.2-1.8.34-1.3.36-1.93.58a19.85,19.85,0,0,0-2.27,1,20.149,20.149,0,0,1,.85,3.09,16.56,16.56,0,0,1,24.33,11.63h.38a19,19,0,0,1,2.83.23,19.6,19.6,0,0,0-4.83-10.46,20,20,0,0,0-3.05-2.87Z" transform="translate(-278.54 -478.01)" fill="#ab110b"/>
      <path id="Caminho_23" data-name="Caminho 23" d="M316.9,551.92a16.471,16.471,0,0,0-8,2.07,18.379,18.379,0,0,1,.31,2.89,13.94,13.94,0,0,1,21.4,9,20.574,20.574,0,0,1,2.62-.23,16.57,16.57,0,0,0-16.33-13.73Z" transform="translate(-278.54 -478.01)" fill="#fff"/>
      <path id="Caminho_24" data-name="Caminho 24" d="M316.9,554.55a13.88,13.88,0,0,0-7.71,2.33c0,.25,0,.49,0,.73,0,.73-.05,1.44-.12,2.15a11.69,11.69,0,0,1,19.3,6.55,22.174,22.174,0,0,1,2.18-.46,14,14,0,0,0-13.65-11.3Z" transform="translate(-278.54 -478.01)" fill="#ab110b"/>
      <path id="Caminho_25" data-name="Caminho 25" d="M316.9,556.77a11.67,11.67,0,0,0-7.79,3q-.11.9-.27,1.77c.23.14.47.27.7.43a9.83,9.83,0,0,1,16.52,2.9,19.816,19.816,0,0,1,2,1.54l.34-.09a11.71,11.71,0,0,0-11.5-9.55Z" transform="translate(-278.54 -478.01)" fill="#fff"/>
      <path id="Caminho_26" data-name="Caminho 26" d="M316.9,558.63a9.79,9.79,0,0,0-7.36,3.33l.43.31a19.211,19.211,0,0,1,2-.43,8.25,8.25,0,0,1,11.46,1.56,18.192,18.192,0,0,1,2.63,1.46A9.86,9.86,0,0,0,316.9,558.63Z" transform="translate(-278.54 -478.01)" fill="#ab110b"/>
      <path id="Caminho_27" data-name="Caminho 27" d="M316.9,560.2a8.269,8.269,0,0,0-4.93,1.64,19.7,19.7,0,0,1,3.19-.28h.75a6.411,6.411,0,0,1,1-.08,6.891,6.891,0,0,1,2.8.59,19.568,19.568,0,0,1,3.73,1.29A8.26,8.26,0,0,0,316.9,560.2Z" transform="translate(-278.54 -478.01)" fill="#fff"/>
      <path id="Caminho_28" data-name="Caminho 28" d="M316.9,561.52a6.4,6.4,0,0,0-1,.08,19.664,19.664,0,0,1,3.79.51,6.889,6.889,0,0,0-2.79-.59Z" transform="translate(-278.54 -478.01)" fill="#ab110b"/>
      <path id="Caminho_29" data-name="Caminho 29" d="M336.42,565.83a19,19,0,0,0-2.83-.23h-.38a20.574,20.574,0,0,0-2.62.23,22.173,22.173,0,0,0-2.18.46l-.34.09a19.592,19.592,0,0,1,2.52,2.63,16.514,16.514,0,0,1,19.11,20.1c1.14-.29,2.26-.63,3.37-1a18.709,18.709,0,0,0,.23-2.82,19.69,19.69,0,0,0-16.88-19.46Z" transform="translate(-278.54 -478.01)" fill="#ab110b"/>
      <path id="Caminho_30" data-name="Caminho 30" d="M333.59,568.74a16.407,16.407,0,0,0-3,.29,20.857,20.857,0,0,1,1.64,2.41c.44,0,.9-.06,1.36-.06a13.94,13.94,0,0,1,13.94,13.94,14.17,14.17,0,0,1-.75,4.48c1-.2,2-.42,2.92-.67a16.52,16.52,0,0,0-16.11-20.39Z" transform="translate(-278.54 -478.01)" fill="#fff"/>
      <path id="Caminho_31" data-name="Caminho 31" d="M333.59,571.38a10.167,10.167,0,0,0-1.36.06,19.125,19.125,0,0,1,1.09,2.17h.27a11.71,11.71,0,0,1,10.61,16.66c.87-.14,1.72-.29,2.58-.46a14.17,14.17,0,0,0,.75-4.48,13.94,13.94,0,0,0-13.94-13.95Z" transform="translate(-278.54 -478.01)" fill="#ab110b"/>
      <path id="Caminho_32" data-name="Caminho 32" d="M333.59,573.6h-.27a17.366,17.366,0,0,1,.68,1.87,9.83,9.83,0,0,1,7.93,15.06c.76-.08,1.52-.17,2.27-.28a11.71,11.71,0,0,0-10.61-16.66Z" transform="translate(-278.54 -478.01)" fill="#fff"/>
      <path id="Caminho_33" data-name="Caminho 33" d="M334,575.48a15.986,15.986,0,0,1,.41,1.59,8.28,8.28,0,0,1,5.44,13.66c.69-.05,1.39-.11,2.08-.19A9.83,9.83,0,0,0,334,575.48Z" transform="translate(-278.54 -478.01)" fill="#ab110b"/>
      <path id="Caminho_34" data-name="Caminho 34" d="M334.41,577.07c.1.45.17.91.23,1.36a7,7,0,0,1,3.16,12.42c.69,0,1.37-.07,2.05-.12a8.28,8.28,0,0,0-5.44-13.66Z" transform="translate(-278.54 -478.01)" fill="#fff"/>
      <path id="Caminho_35" data-name="Caminho 35" d="M340.55,585.32a7,7,0,0,0-5.91-6.89c.06.38.11.76.15,1.15a5.86,5.86,0,0,1,.56,11.32h.21c.76,0,1.5,0,2.24-.06a6.93,6.93,0,0,0,2.75-5.52Z" transform="translate(-278.54 -478.01)" fill="#ab110b"/>
      <path id="Caminho_36" data-name="Caminho 36" d="M339.44,585.32a5.85,5.85,0,0,0-4.65-5.74v1a4.92,4.92,0,0,1-1.25,9.67,4.8,4.8,0,0,1-.85-.08c-.11.22-.22.44-.34.66,1,0,2,.08,3,.08A5.84,5.84,0,0,0,339.44,585.32Z" transform="translate(-278.54 -478.01)" fill="#fff"/>
      <path id="Caminho_37" data-name="Caminho 37" d="M334.86,581.39a4.13,4.13,0,0,1-1.27,8.07,3.88,3.88,0,0,1-.49-.05c-.11.25-.24.5-.36.75a4.8,4.8,0,0,0,.85.08,4.92,4.92,0,0,0,1.25-9.67v.71A.409.409,0,0,1,334.86,581.39Z" transform="translate(-278.54 -478.01)" fill="#ab110b"/>
      <path id="Caminho_38" data-name="Caminho 38" d="M337.73,585.32a4.15,4.15,0,0,0-2.87-3.93c0,.23,0,.45,0,.68a3.48,3.48,0,0,1-1.24,6.73h-.21c-.08.21-.18.42-.28.63a3.869,3.869,0,0,0,.49.05,4.15,4.15,0,0,0,4.11-4.16Z" transform="translate(-278.54 -478.01)" fill="#fff"/>
      <path id="Caminho_39" data-name="Caminho 39" d="M337.07,585.32a3.47,3.47,0,0,0-2.24-3.25v.59a2.92,2.92,0,0,1-1.21,5.58h0c-.07.18-.12.36-.2.54h.21A3.48,3.48,0,0,0,337.07,585.32Z" transform="translate(-278.54 -478.01)" fill="#ab110b"/>
      <path id="Caminho_40" data-name="Caminho 40" d="M336.51,585.32a2.91,2.91,0,0,0-1.71-2.66v.51a2.45,2.45,0,0,1-1,4.59l-.18.48h0A2.92,2.92,0,0,0,336.51,585.32Z" transform="translate(-278.54 -478.01)" fill="#fff"/>
      <path id="Caminho_41" data-name="Caminho 41" d="M336.05,585.32a2.47,2.47,0,0,0-1.27-2.15c0,.2-.06.39-.08.59a1.91,1.91,0,0,1-.73,3.43c-.07.2-.15.38-.21.57A2.45,2.45,0,0,0,336.05,585.32Z" transform="translate(-278.54 -478.01)" fill="#ab110b"/>
      <path id="Caminho_42" data-name="Caminho 42" d="M335.5,585.32a1.92,1.92,0,0,0-.8-1.56.761.761,0,0,1-.05.33,1.61,1.61,0,0,1-.6,2.78,1.157,1.157,0,0,1-.08.32A1.92,1.92,0,0,0,335.5,585.32Z" transform="translate(-278.54 -478.01)" fill="#fff"/>
      <path id="Caminho_43" data-name="Caminho 43" d="M335.22,585.32a1.62,1.62,0,0,0-.57-1.23.991.991,0,0,1-.07.44,1.3,1.3,0,0,1,.29.79,1.27,1.27,0,0,1-.71,1.13,1.629,1.629,0,0,1-.11.42A1.62,1.62,0,0,0,335.22,585.32Z" transform="translate(-278.54 -478.01)" fill="#ab110b"/>
      <path id="Caminho_44" data-name="Caminho 44" d="M334.87,585.32a1.3,1.3,0,0,0-.29-.79l-.06.39a1.01,1.01,0,0,1-.26,1.15,1.429,1.429,0,0,1-.1.38,1.27,1.27,0,0,0,.71-1.13Z" transform="translate(-278.54 -478.01)" fill="#fff"/>
      <path id="Caminho_45" data-name="Caminho 45" d="M334.6,585.32a1,1,0,0,0-.08-.4c-.07.38-.16.76-.26,1.15A1,1,0,0,0,334.6,585.32Z" transform="translate(-278.54 -478.01)" fill="#ab110b"/>
      <path id="Caminho_46" data-name="Caminho 46" d="M289.51,541a16.57,16.57,0,0,1,16.58,16.57,16.387,16.387,0,0,1-.2,2.44,19.845,19.845,0,0,1,2.95,1.48q.17-.87.27-1.77c.07-.71.12-1.42.12-2.15v-.73a18.382,18.382,0,0,0-.31-2.89,20.151,20.151,0,0,0-.85-3.09,19.4,19.4,0,0,0-.76-1.82,20.44,20.44,0,0,0-3.94-5.52,22.325,22.325,0,0,0-2-1.73,20.823,20.823,0,0,0-2-1.33,18.562,18.562,0,0,0-2.14-1.07,20.639,20.639,0,0,0-6.73-1.49h-.89a12.424,12.424,0,0,0-1.93.1,17.986,17.986,0,0,0-2.33.38,18.489,18.489,0,0,0-2.34.68,19.2,19.2,0,0,0-2.46,1.06c-.41.21-.8.44-1.19.68.14,1.15.31,2.3.51,3.43a16.46,16.46,0,0,1,9.64-3.23Z" transform="translate(-278.54 -478.01)" fill="#ab110b"/>
      <path id="Caminho_47" data-name="Caminho 47" d="M282.51,544.9a7.712,7.712,0,0,1,1.18.06,13.91,13.91,0,0,1,19.76,12.65,14.688,14.688,0,0,1-.1,1.63,18.323,18.323,0,0,1,2.54.81,16.538,16.538,0,0,0-26.12-15.82l.15.86A20.105,20.105,0,0,1,282.51,544.9Z" transform="translate(-278.54 -478.01)" fill="#fff"/>
      <path id="Caminho_48" data-name="Caminho 48" d="M303.45,557.61A13.91,13.91,0,0,0,283.69,545a19.447,19.447,0,0,1,5.09,1h.73a11.71,11.71,0,0,1,11.72,11.71c0,.25,0,.49,0,.74s.12.33.17.5a18.734,18.734,0,0,1,2,.39,14.7,14.7,0,0,0,.05-1.73Z" transform="translate(-278.54 -478.01)" fill="#ab110b"/>
      <path id="Caminho_49" data-name="Caminho 49" d="M301.23,557.61a11.71,11.71,0,0,0-11.72-11.71h-.73a19.821,19.821,0,0,1,6.65,3.81,10.11,10.11,0,0,1,2,2,19.82,19.82,0,0,1,3.81,6.65A6.291,6.291,0,0,1,301.23,557.61Z" transform="translate(-278.54 -478.01)" fill="#fff"/>
      <path id="Caminho_50" data-name="Caminho 50" d="M295.43,549.74a20.144,20.144,0,0,1,2,2A10.11,10.11,0,0,0,295.43,549.74Z" transform="translate(-278.54 -478.01)" fill="#ab110b"/>
      <path id="Caminho_51" data-name="Caminho 51" d="M282.51,548A16.57,16.57,0,0,1,298,558.66h.62a19.671,19.671,0,0,1,2.78.22c-.05-.17-.12-.33-.17-.5a19.82,19.82,0,0,0-3.81-6.65,20.149,20.149,0,0,0-2-2,19.82,19.82,0,0,0-6.65-3.81,19.453,19.453,0,0,0-5.09-1c-.39,0-.78-.06-1.18-.06a20.105,20.105,0,0,0-2.59.19c.2,1,.43,2.06.68,3.07a17.345,17.345,0,0,1,1.92-.12Z" transform="translate(-278.54 -478.01)" fill="#ab110b"/>
      <path id="Caminho_52" data-name="Caminho 52" d="M282.51,550.67a13.94,13.94,0,0,1,12.73,8.27,18.829,18.829,0,0,1,2.73-.28A16.57,16.57,0,0,0,282.51,548a17.312,17.312,0,0,0-1.91.12c.22.87.46,1.72.72,2.57C281.72,550.7,282.11,550.67,282.51,550.67Z" transform="translate(-278.54 -478.01)" fill="#fff"/>
      <path id="Caminho_53" data-name="Caminho 53" d="M293,559.44a19.879,19.879,0,0,1,2.22-.5,13.94,13.94,0,0,0-12.73-8.27,7.909,7.909,0,0,0-1.19.06q.35,1.11.72,2.19h.47A11.71,11.71,0,0,1,293,559.44Z" transform="translate(-278.54 -478.01)" fill="#ab110b"/>
      <path id="Caminho_54" data-name="Caminho 54" d="M291.25,560.06c.58-.23,1.17-.44,1.77-.62a11.71,11.71,0,0,0-10.51-6.54h-.47c.22.62.45,1.24.69,1.85a9.83,9.83,0,0,1,8.52,5.31Z" transform="translate(-278.54 -478.01)" fill="#fff"/>
      <path id="Caminho_55" data-name="Caminho 55" d="M289.82,560.71a15.307,15.307,0,0,1,1.43-.65,9.83,9.83,0,0,0-8.52-5.29c.21.53.41,1.07.64,1.6A8.29,8.29,0,0,1,289.82,560.71Z" transform="translate(-278.54 -478.01)" fill="#ab110b"/>
      <path id="Caminho_56" data-name="Caminho 56" d="M288.66,561.33c.38-.22.77-.43,1.16-.62a8.29,8.29,0,0,0-6.45-4.34c.2.49.43,1,.65,1.44a7,7,0,0,1,4.64,3.52Z" transform="translate(-278.54 -478.01)" fill="#fff"/>
      <path id="Caminho_57" data-name="Caminho 57" d="M287.71,561.91a9.4,9.4,0,0,1,1-.58,7,7,0,0,0-4.64-3.52c.2.45.41.91.63,1.35A5.88,5.88,0,0,1,287.71,561.91Z" transform="translate(-278.54 -478.01)" fill="#ab110b"/>
      <path id="Caminho_58" data-name="Caminho 58" d="M286.93,562.47c.26-.19.51-.38.78-.56a5.88,5.88,0,0,0-3.06-2.75c.24.5.5,1,.76,1.48A4.83,4.83,0,0,1,286.93,562.47Z" transform="translate(-278.54 -478.01)" fill="#fff"/>
      <path id="Caminho_59" data-name="Caminho 59" d="M286.93,562.47a4.83,4.83,0,0,0-1.52-1.83c.37.71.76,1.41,1.16,2.1Z" transform="translate(-278.54 -478.01)" fill="#ab110b"/>
      <path id="Caminho_60" data-name="Caminho 60" d="M333.1,589.41c.1-.21.2-.42.28-.63s.13-.36.2-.54l.18-.48c.06-.19.14-.37.21-.57s0-.21.08-.32a1.364,1.364,0,0,0,.11-.42c.04-.14.07-.26.1-.38.1-.39.19-.77.26-1.15l.06-.39a3.1,3.1,0,0,1,.07-.44,1.091,1.091,0,0,1,.05-.33,2.8,2.8,0,0,0,.08-.59,4.333,4.333,0,0,0,0-.51v-1.27a.411.411,0,0,0,0-.11c0-.24,0-.48,0-.71v-1a8.256,8.256,0,0,0-.15-1.15c-.06-.38-.13-.91-.23-1.36s-.25-1.07-.41-1.59a17.374,17.374,0,0,0-.68-1.87,19.126,19.126,0,0,0-1.09-2.17,20.857,20.857,0,0,0-1.64-2.41,19.593,19.593,0,0,0-2.52-2.63,19.826,19.826,0,0,0-2-1.54,18.186,18.186,0,0,0-2.63-1.46,19.54,19.54,0,0,0-7.52-1.8h-.75a19.718,19.718,0,0,0-3.19.28,19.211,19.211,0,0,0-2,.43,20.5,20.5,0,0,1,3,2.6,16.077,16.077,0,0,1,2.21-.17,16.58,16.58,0,0,1,13.76,25.81c1.15.13,2.31.24,3.48.31.12-.22.23-.44.34-.66S333,589.66,333.1,589.41Z" transform="translate(-278.54 -478.01)" fill="#ab110b"/>
      <path id="Caminho_61" data-name="Caminho 61" d="M331.73,581.28a16.57,16.57,0,0,0-16.57-16.58,16.068,16.068,0,0,0-2.21.17,20.086,20.086,0,0,1,2,2.48h.21A13.93,13.93,0,0,1,326,590.08c1,.17,2,.31,3,.43A16.54,16.54,0,0,0,331.73,581.28Z" transform="translate(-278.54 -478.01)" fill="#fff"/>
      <path id="Caminho_62" data-name="Caminho 62" d="M329.1,581.28a13.94,13.94,0,0,0-13.94-13.94H315a20.934,20.934,0,0,1,1.29,2.26,11.72,11.72,0,0,1,7.17,20c.84.18,1.69.35,2.55.49A13.86,13.86,0,0,0,329.1,581.28Z" transform="translate(-278.54 -478.01)" fill="#ab110b"/>
      <path id="Caminho_63" data-name="Caminho 63" d="M326.87,581.28a11.72,11.72,0,0,0-10.631-11.67,20.683,20.683,0,0,1,.851,2,9.85,9.85,0,0,1,4.09,17.45c.74.2,1.48.37,2.23.53a11.66,11.66,0,0,0,3.46-8.31Z" transform="translate(-278.54 -478.01)" fill="#fff"/>
      <path id="Caminho_64" data-name="Caminho 64" d="M325,581.28a9.85,9.85,0,0,0-7.92-9.67,17.94,17.94,0,0,1,.55,1.76,8.28,8.28,0,0,1,1.56,15.13c.66.2,1.32.39,2,.56A9.8,9.8,0,0,0,325,581.28Z" transform="translate(-278.54 -478.01)" fill="#ab110b"/>
      <path id="Caminho_65" data-name="Caminho 65" d="M323.44,581.28a8.3,8.3,0,0,0-5.8-7.91c.13.51.25,1,.34,1.54a7,7,0,0,1-.65,13c.62.21,1.24.41,1.87.6a8.27,8.27,0,0,0,4.24-7.23Z" transform="translate(-278.54 -478.01)" fill="#fff"/>
      <path id="Caminho_66" data-name="Caminho 66" d="M322.13,581.28a7,7,0,0,0-4.15-6.37c.08.45.16.9.21,1.36A5.85,5.85,0,0,1,316.27,587c-.08.14-.14.29-.21.43.42.16.84.29,1.27.44A7,7,0,0,0,322.13,581.28Z" transform="translate(-278.54 -478.01)" fill="#ab110b"/>
      <path id="Caminho_67" data-name="Caminho 67" d="M318.26,577.47a4.89,4.89,0,0,1-1.47,8.43c-.16.39-.34.76-.52,1.13a5.85,5.85,0,0,0,1.92-10.76C318.23,576.67,318.24,577.07,318.26,577.47Z" transform="translate(-278.54 -478.01)" fill="#fff"/>
      <path id="Caminho_68" data-name="Caminho 68" d="M320.08,581.28a4.92,4.92,0,0,0-1.82-3.81v1.12a4.1,4.1,0,0,1-1.12,6.29c-.12.34-.24.69-.38,1A4.89,4.89,0,0,0,320.08,581.28Z" transform="translate(-278.54 -478.01)" fill="#ab110b"/>
      <path id="Caminho_69" data-name="Caminho 69" d="M319.3,581.28a4.12,4.12,0,0,0-1-2.69,9.891,9.891,0,0,1-.06,1.08,3.35,3.35,0,0,1,.41,1.61,3.47,3.47,0,0,1-1.13,2.55c-.1.35-.22.7-.34,1a4.14,4.14,0,0,0,2.12-3.55Z" transform="translate(-278.54 -478.01)" fill="#fff"/>
      <path id="Caminho_70" data-name="Caminho 70" d="M318.64,581.28a3.35,3.35,0,0,0-.41-1.61,7.631,7.631,0,0,1-.15,1.5v.11a2.87,2.87,0,0,1-.18,1c-.11.54-.25,1.07-.4,1.59a3.47,3.47,0,0,0,1.14-2.59Z" transform="translate(-278.54 -478.01)" fill="#ab110b"/>
      <path id="Caminho_71" data-name="Caminho 71" d="M318.08,581.17c-.06.35-.1.71-.17,1.07a2.87,2.87,0,0,0,.18-1A.359.359,0,0,1,318.08,581.17Z" transform="translate(-278.54 -478.01)" fill="#fff"/>
      <path id="Caminho_72" data-name="Caminho 72" d="M316.79,585.9c.14-.33.26-.68.38-1s.24-.7.34-1c.15-.52.29-1.05.4-1.59.07-.36.11-.72.17-1.07s.12-1,.15-1.5a10.253,10.253,0,0,1,.06-1.08v-1.12a7.561,7.561,0,0,0-.07-1.2c-.07-.4-.13-.91-.21-1.36s-.21-1-.34-1.54a17.941,17.941,0,0,0-.55-1.76,20.675,20.675,0,0,0-.85-2,20.935,20.935,0,0,0-1.29-2.26,20.075,20.075,0,0,0-2-2.48,20.5,20.5,0,0,0-3-2.6l-.43-.31c-.23-.16-.47-.29-.7-.43a19.844,19.844,0,0,0-2.95-1.48,18.321,18.321,0,0,0-2.54-.81,18.734,18.734,0,0,0-2-.39,19.672,19.672,0,0,0-2.78-.22h-.62a18.838,18.838,0,0,0-2.73.28,19.88,19.88,0,0,0-2.22.5c-.6.18-1.19.39-1.77.62a15.271,15.271,0,0,0-1.43.65c-.39.19-.78.4-1.16.62s-.64.37-1,.58a7.279,7.279,0,0,0-.78.56l-.36.27c.54.91,1.09,1.8,1.66,2.68a16.57,16.57,0,0,1,24.9,20.87c1,.41,1.94.81,2.93,1.17.07-.14.13-.29.21-.43A9.068,9.068,0,0,0,316.79,585.9Z" transform="translate(-278.54 -478.01)" fill="#ab110b"/>
      <path id="Caminho_73" data-name="Caminho 73" d="M315.16,578.35a16.56,16.56,0,0,0-26.93-12.93c.49.73,1,1.45,1.51,2.16a13.93,13.93,0,0,1,21,17.61c.8.38,1.6.75,2.41,1.1a16.52,16.52,0,0,0,2.01-7.94Z" transform="translate(-278.54 -478.01)" fill="#fff"/>
      <path id="Caminho_74" data-name="Caminho 74" d="M312.53,578.35a13.94,13.94,0,0,0-22.79-10.77c.43.6.88,1.18,1.34,1.77a11.71,11.71,0,0,1,17.66,14.82l2,1a13.83,13.83,0,0,0,1.79-6.82Z" transform="translate(-278.54 -478.01)" fill="#ab110b"/>
      <path id="Caminho_75" data-name="Caminho 75" d="M310.3,578.35a11.71,11.71,0,0,0-19.22-9c.39.48.78,1,1.18,1.44a9.85,9.85,0,0,1,14.87,12.46c.53.31,1.07.63,1.61.92a11.61,11.61,0,0,0,1.56-5.82Z" transform="translate(-278.54 -478.01)" fill="#fff"/>
      <path id="Caminho_76" data-name="Caminho 76" d="M308.44,578.35a9.85,9.85,0,0,0-16.18-7.56c.34.4.68.8,1,1.19a8.28,8.28,0,0,1,12.49,10.47c.44.28.89.54,1.35.8A9.8,9.8,0,0,0,308.44,578.35Z" transform="translate(-278.54 -478.01)" fill="#ab110b"/>
      <path id="Caminho_77" data-name="Caminho 77" d="M306.87,578.35A8.28,8.28,0,0,0,293.29,572l.89,1a7,7,0,0,1,10.49,8.79c.37.24.73.48,1.11.71a8.26,8.26,0,0,0,1.09-4.15Z" transform="translate(-278.54 -478.01)" fill="#fff"/>
      <path id="Caminho_78" data-name="Caminho 78" d="M305.55,578.35a7,7,0,0,0-11.37-5.4l.77.81a5.79,5.79,0,0,1,3.64-1.27,5.87,5.87,0,0,1,5.15,8.65l.93.6A6.929,6.929,0,0,0,305.55,578.35Z" transform="translate(-278.54 -478.01)" fill="#ab110b"/>
      <path id="Caminho_79" data-name="Caminho 79" d="M304.44,578.35a5.85,5.85,0,0,0-5.85-5.86,5.79,5.79,0,0,0-3.64,1.27l.67.68a4.85,4.85,0,0,1,3-1,4.9,4.9,0,0,1,4.37,7.16c.26.18.51.38.78.56A5.83,5.83,0,0,0,304.44,578.35Z" transform="translate(-278.54 -478.01)" fill="#fff"/>
      <path id="Caminho_80" data-name="Caminho 80" d="M298.59,573.42a4.85,4.85,0,0,0-3,1l.56.54a4.13,4.13,0,0,1,6.55,3.37,4.08,4.08,0,0,1-.42,1.77l.65.46a4.9,4.9,0,0,0-4.37-7.16Z" transform="translate(-278.54 -478.01)" fill="#ab110b"/>
      <path id="Caminho_81" data-name="Caminho 81" d="M298.59,574.2a4.18,4.18,0,0,0-2.41.78l.49.46a3.48,3.48,0,0,1,5.4,2.91,3.6,3.6,0,0,1-.29,1.39l.53.38a4.081,4.081,0,0,0,.42-1.77,4.15,4.15,0,0,0-4.14-4.15Z" transform="translate(-278.54 -478.01)" fill="#fff"/>
      <path id="Caminho_82" data-name="Caminho 82" d="M298.59,574.86a3.5,3.5,0,0,0-1.92.58l.42.4a2.91,2.91,0,0,1,4.42,2.51,2.83,2.83,0,0,1-.2,1l.47.35a3.6,3.6,0,0,0,.29-1.39A3.48,3.48,0,0,0,298.59,574.86Z" transform="translate(-278.54 -478.01)" fill="#ab110b"/>
      <path id="Caminho_83" data-name="Caminho 83" d="M301.51,578.35a2.91,2.91,0,0,0-4.42-2.51l.35.34a2.349,2.349,0,0,1,1.15-.3,2.47,2.47,0,0,1,2.46,2.47,2.241,2.241,0,0,1-.13.73c.14.1.26.21.39.31A2.83,2.83,0,0,0,301.51,578.35Z" transform="translate(-278.54 -478.01)" fill="#fff"/>
      <path id="Caminho_84" data-name="Caminho 84" d="M298.59,575.88a2.349,2.349,0,0,0-1.15.3l.45.39a1.82,1.82,0,0,1,.7-.14,1.92,1.92,0,0,1,1.91,1.92,1.551,1.551,0,0,1,0,.37l.46.36a2.241,2.241,0,0,0,.13-.73,2.47,2.47,0,0,0-2.5-2.47Z" transform="translate(-278.54 -478.01)" fill="#ab110b"/>
      <path id="Caminho_85" data-name="Caminho 85" d="M298.59,576.43a1.82,1.82,0,0,0-.7.14l.25.21a1.61,1.61,0,0,1,2.08,1.57.877.877,0,0,1,0,.16l.26.21a1.55,1.55,0,0,0,0-.37,1.92,1.92,0,0,0-1.89-1.92Z" transform="translate(-278.54 -478.01)" fill="#fff"/>
      <path id="Caminho_86" data-name="Caminho 86" d="M298.59,576.71a1.628,1.628,0,0,0-.45.07l.34.3h.11a1.27,1.27,0,0,1,1.26,1.18l.35.27a.878.878,0,0,0,0-.16,1.63,1.63,0,0,0-1.61-1.66Z" transform="translate(-278.54 -478.01)" fill="#ab110b"/>
      <path id="Caminho_87" data-name="Caminho 87" d="M298.59,577.06h-.11l.34.3a1,1,0,0,1,.71.61l.32.25a1.27,1.27,0,0,0-1.26-1.16Z" transform="translate(-278.54 -478.01)" fill="#fff"/>
      <path id="Caminho_88" data-name="Caminho 88" d="M298.82,577.38l.71.61A1,1,0,0,0,298.82,577.38Z" transform="translate(-278.54 -478.01)" fill="#ab110b"/>
    </g>
    <g id="Name">
      <path id="Caminho_89" data-name="Caminho 89" d="M433.4,519.54A4.35,4.35,0,0,1,432,523a4.56,4.56,0,0,1-3.15,1.09H410.46a3.83,3.83,0,0,1-2.58-1.13,3,3,0,0,1-1.06-2.35,14.8,14.8,0,0,1,1-2.88,30.6,30.6,0,0,0,1.13-3.51c.77,1.14,1.55,2.28,2.35,3.41a4.61,4.61,0,0,0,3.18,1.46h12.23a8.1,8.1,0,0,0,1.86-.17c.79-.2,1.19-.55,1.19-1.06,0-.86-.88-1.69-2.65-2.48a37.9,37.9,0,0,0-5.5-1.83q-4.41-1.15-4.68-1.26a19.109,19.109,0,0,1-6.59-3.38,8,8,0,0,1-2.95-6.33v-1.75h2.78v-.53a2.82,2.82,0,0,0-1.21-1.28,2.79,2.79,0,0,1-1.24-1.67c.66.19,1.33.38,2,.55q2.58.69,4.8,1.08a33.587,33.587,0,0,0,5.71.59h3.64a19,19,0,0,0,5.3-1.54c.86-.33,2.1-.85,3.71-1.54V497c-.37,1.61-.75,3.22-1.12,4.82q-1.29,3-5.27,3h-1.73c-1.72-.22-3.08-.42-4.07-.59A21,21,0,0,1,414,502h-.7v.56c0,1.06.72,2.13,2.15,3.22a16,16,0,0,0,6.33,2.65q3,.68,6,1.3a8.78,8.78,0,0,1,4.11,2.15,7,7,0,0,1,1.53,4.92Z" transform="translate(-278.54 -478.01)" fill="#ab110b"/>
      <path id="Caminho_90" data-name="Caminho 90" d="M462.2,508.37c0,.38-1.36.87-4.08,1.46s-4.08,1.24-4.08,1.92v4.18c.29,1.19.52,2.09.7,2.69.57,1.78,1.12,2.68,1.63,2.68s1-1.1,1.39-3.31c.11-.73.25-1.84.43-3.32h.46a19.332,19.332,0,0,0,1,3.37,15.769,15.769,0,0,1,1,3.56V523a3.11,3.11,0,0,1-1.16,2.25,4.42,4.42,0,0,1-3.14,1.3q-3.89,0-5.87-4.77a17.83,17.83,0,0,1-1.39-6.93v-2.61a1,1,0,0,0-.17-.57l-.26-.36h-6.5a.86.86,0,0,0-.65.31,1.12,1.12,0,0,0-.28.75V523.3a.779.779,0,0,1-.13.23,2.79,2.79,0,0,1-2,.56h-1.53a1.49,1.49,0,0,1-1.12-.43,1.51,1.51,0,0,1-.43-1.13V500.36a.74.74,0,0,1,.38-.71,2.07,2.07,0,0,1,1-.22h2.91l1.1.63v9.38a.83.83,0,0,0,.76.47h4.64l1.06-.14q1.13-.16,1.23-.33s.22-1.63.59-4.84.6-4.89.68-5.06.52-.4,1.33-.71a5.63,5.63,0,0,1,1.87-.46,5.13,5.13,0,0,1,1.74.77c.89.52,1.34,1,1.34,1.38a1.37,1.37,0,0,1-.33.8,13.344,13.344,0,0,0-1.06,1.49,9.061,9.061,0,0,0-.41,1.69c-.13.73-.24,1.46-.35,2.18v1.69h.6c1.26-.66,2.28-1.22,3.08-1.69a3,3,0,0,1,1.09-.46,5.64,5.64,0,0,1,1.59.86C461.76,507.66,462.2,508.09,462.2,508.37Z" transform="translate(-278.54 -478.01)" fill="#ab110b"/>
      <path id="Caminho_91" data-name="Caminho 91" d="M489,524.09H465a.994.994,0,0,1,.41-.94,4.09,4.09,0,0,1,1.55-.19h4.2a1.12,1.12,0,0,0,.57-.13,4.306,4.306,0,0,0,.4-.33V502c-.11-.22-.2-.39-.27-.5a1,1,0,0,0-.86-.5h-4.71a2.831,2.831,0,0,1-1-.17.6.6,0,0,1-.44-.61.59.59,0,0,1,.25-.54,1.56,1.56,0,0,1,.72-.14h14.45l5.2-1.92a4.64,4.64,0,0,1,1.9,1.15,7.168,7.168,0,0,1,1.51,1.76,2.26,2.26,0,0,1-.59.3,13.326,13.326,0,0,0-2-.22c-1-.05-2.27-.08-3.84-.08q-3.51,0-4.41.6c-.44.29-.66.95-.66,2v19c.15.17.27.31.36.39a1.29,1.29,0,0,0,.77.43h2.12a5.1,5.1,0,0,0,2.15-.53l2.72-1.26a5.76,5.76,0,0,1,1.69,1,4.73,4.73,0,0,1,1.81,1.93Zm-11.2-29.57a3.32,3.32,0,0,1-1,2.42,2.84,2.84,0,0,1-2.09.83,1.91,1.91,0,0,1-1.46-.66q-3.11-3.42-4.7-5a13.281,13.281,0,0,0,2.71-.53,9.741,9.741,0,0,1,2.52-.43,4.54,4.54,0,0,1,2.9.9,3,3,0,0,1,1.13,2.47Z" transform="translate(-278.54 -478.01)" fill="#ab110b"/>
      <path id="Caminho_92" data-name="Caminho 92" d="M386.11,537.63a19.148,19.148,0,0,0-2.85.12.66.66,0,0,0-.57.71c.18.64.32,1.18.43,1.62a59.9,59.9,0,0,0,2.26,6.76A29.344,29.344,0,0,0,387.6,551c.47.77.91,1.41,1.31,1.94a56.369,56.369,0,0,0,2.94-15.33h-5.74Z" transform="translate(-278.54 -478.01)" fill="#ab110b"/>
      <path id="Caminho_93" data-name="Caminho 93" d="M403,500.31a3.69,3.69,0,0,0-1.82-.74,3.54,3.54,0,0,0-2.29.86,5.408,5.408,0,0,0-.79.86V517a21.1,21.1,0,0,0,.59,3.65v1.06c-.15,0-.83.08-2,.23l-1.53.2a8.27,8.27,0,0,1-5-1.5c.29,1.11.53,2.24.75,3.38h1a11,11,0,0,0,4-.66,11.191,11.191,0,0,0,2.83-1.53c.16,0,.57.84,1.25,2.5s1.32,2.59,1.94,2.77a12.643,12.643,0,0,1-.1-1.5l.06-1.19v-1.26c0-.45.12-.46.36-.46h.13v-9.71a6.1,6.1,0,0,1,.3-2.25.85.85,0,0,1,.3-.37V504.6a3.36,3.36,0,0,1,.36-1.52c.25-.49.51-1,.8-1.56C404.17,501.24,403.79,500.81,403,500.31Z" transform="translate(-278.54 -478.01)" fill="#ab110b"/>
      <path id="Caminho_94" data-name="Caminho 94" d="M386.37,510v-2.05q.44-3.31.87-6.67,0-.69-1.83-1.89c-.39-.26-1-.61-1.82-1.06l-1.46,2.85a8.935,8.935,0,0,1-.62.83,56.812,56.812,0,0,1,4.83,8.19Z" transform="translate(-278.54 -478.01)" fill="#ab110b"/>
      <path id="Caminho_95" data-name="Caminho 95" d="M390.45,561.09h1.26a3,3,0,0,0,1.89-.79,2.76,2.76,0,0,0,1.09-2.22v-1.6l-1.56-4.7h-.49a3.06,3.06,0,0,1-.87,2.38,2.069,2.069,0,0,1-.86.47c-.49,0-1.16-.57-2-1.67a58.528,58.528,0,0,1-2.46,6.08,5.21,5.21,0,0,0,4,2.05Z" transform="translate(-278.54 -478.01)" fill="#ab110b"/>
      <path id="Caminho_96" data-name="Caminho 96" d="M393,537.63a4.761,4.761,0,0,0-1.08-1.55c0,.51,0,1,0,1.55Z" transform="translate(-278.54 -478.01)" fill="#ab110b"/>
      <path id="Caminho_97" data-name="Caminho 97" d="M404.73,532.82a5.18,5.18,0,0,1-1.67,3.61,14.759,14.759,0,0,1-5,3.09h-.63A23.266,23.266,0,0,1,398.8,537a19,19,0,0,0,1.26-2.79,7.83,7.83,0,0,0,.33-1.64c.09-.74.19-1.5.3-2.27a15.855,15.855,0,0,1,2.05,1C404.07,532,404.73,532.48,404.73,532.82ZM428,537c-.18.47-.31.83-.4,1.09a6.908,6.908,0,0,0-.4,1.86v13a8.321,8.321,0,0,1-1.16,4.68,4.39,4.39,0,0,1-3.94,2,2.62,2.62,0,0,1-2.05-1,7.24,7.24,0,0,1-1.36-2.87,3.11,3.11,0,0,0,3.08-1.59,7.14,7.14,0,0,0,.5-3.05v-12.7a.7.7,0,0,0-.8-.79h-2.15a.91.91,0,0,0-.58.16,3,3,0,0,0-.35.3v12.3a10.06,10.06,0,0,1-2.69,7.39,21.371,21.371,0,0,1-5,3.18H410a17.149,17.149,0,0,0,2.21-3.35,7.721,7.721,0,0,0,.87-3.51V539.65a2.79,2.79,0,0,0,.23-1c0-.68-.28-1-.83-1h-2.19a1.22,1.22,0,0,0-.68.16l-.41.3v13.22a10.34,10.34,0,0,1-2.4,6.15,13.88,13.88,0,0,1-6.15,3.63h-.47l2.19-3a8.149,8.149,0,0,0,1.43-4.34v-17.2h16.6l4.34-2a5.232,5.232,0,0,1,1.83,1C427.55,536.17,428,536.68,428,537Z" transform="translate(-278.54 -478.01)" fill="#ab110b"/>
      <path id="Caminho_98" data-name="Caminho 98" d="M455.3,561.09h-24a.994.994,0,0,1,.41-.94,4,4,0,0,1,1.54-.19h4.21a1.079,1.079,0,0,0,.56-.13,2.564,2.564,0,0,0,.4-.33V539l-.26-.5a1.06,1.06,0,0,0-.86-.49h-4.71a2.882,2.882,0,0,1-1-.17.61.61,0,0,1-.43-.61.59.59,0,0,1,.25-.54,1.51,1.51,0,0,1,.71-.14h14.45l5.21-1.93a4.86,4.86,0,0,1,1.9,1.16,7.17,7.17,0,0,1,1.51,1.76,2.1,2.1,0,0,1-.6.3,12.993,12.993,0,0,0-2-.22c-1,0-2.27-.08-3.84-.08-2.35,0-3.81.2-4.41.6-.44.29-.66,1-.66,2v19c.15.17.27.31.36.39a1.27,1.27,0,0,0,.76.43h2.12a5.139,5.139,0,0,0,2.16-.53l2.72-1.26a5.9,5.9,0,0,1,1.69,1A4.619,4.619,0,0,1,455.3,561.09Zm-11.2-29.57a3.31,3.31,0,0,1-1,2.42,2.86,2.86,0,0,1-2.09.83,1.89,1.89,0,0,1-1.46-.66q-3.12-3.42-4.71-5a13.239,13.239,0,0,0,2.72-.53,9.743,9.743,0,0,1,2.52-.43,4.54,4.54,0,0,1,2.9.9,3,3,0,0,1,1.12,2.47Z" transform="translate(-278.54 -478.01)" fill="#ab110b"/>
      <path id="Caminho_99" data-name="Caminho 99" d="M482.75,548.27c-.42,1.12-.83,2.24-1.23,3.34a18.23,18.23,0,0,1-4.33,6.13,12.31,12.31,0,0,1-8.58,3.35h-1.29q-5.49,0-7.64-3.21a8.84,8.84,0,0,1-1.33-5.07V542.23c-.11-1-.18-1.7-.23-2.18a16.817,16.817,0,0,0-.43-2.69v-1.62h.66l1.53.51c.28.1.43.36.43.78.55-.18.84-.23.86-.16s.05.16.1.16a6.26,6.26,0,0,1,2.12.25c.42.17.63.57.63,1.21v1.79c-.13.86-.26,1.73-.4,2.62a30.55,30.55,0,0,0-.4,3.71v3.61a5.25,5.25,0,0,0,2.09,4.18,5.85,5.85,0,0,0,3.75,1.52h2.62a8.94,8.94,0,0,0,5.3-2,23.933,23.933,0,0,0,3.91-3.91c.62-.78,1.24-1.56,1.86-2.36Zm-8.16-7.16a3.34,3.34,0,0,1-3.11,3.24c-1.33,0-2.27-.8-2.82-2.41a29.448,29.448,0,0,0-2.49-5.87h.8l4.24.93c2.25.82,3.38,2.18,3.38,4.11Z" transform="translate(-278.54 -478.01)" fill="#ab110b"/>
      <path id="Caminho_100" data-name="Caminho 100" d="M503.06,554.43q0,3.65-1.86,5.3a6,6,0,0,1-4.2,1.36h-4.78a12.189,12.189,0,0,1-4.93-.91c-1.4-.61-2.09-1.43-2.09-2.47.15-1.35.28-2.37.39-3.08a11.37,11.37,0,0,1,.9-3.65,18.262,18.262,0,0,0,1.09,3.68q1.23,2,4.64,2h2.26q3,0,4.47-4.61a32.631,32.631,0,0,0,1.13-9.41v-6a14.839,14.839,0,0,1,1.29,3.77,26.479,26.479,0,0,1,1,6.43,1.879,1.879,0,0,1,.34.53,7.29,7.29,0,0,1,.36,2.56Zm-5.37-4L491,551.51h-2.12a2,2,0,0,1-1.88-1.37,7.92,7.92,0,0,1-.64-3.37v-5.3a25,25,0,0,1,.46-5.14c.31-1.46.71-2.19,1.19-2.19a6.341,6.341,0,0,1,2.41,1.19c1.2.8,1.8,1.4,1.8,1.79a6.42,6.42,0,0,0-.69.93,4.9,4.9,0,0,0-.73,2.55v4.51a4.51,4.51,0,0,0,3.15,4.58c2.25.4,3.5.64,3.74.73Z" transform="translate(-278.54 -478.01)" fill="#ab110b"/>
      <path id="Caminho_101" data-name="Caminho 101" d="M369.9,489c-.16.15-.35.3-.52.45l.62.49Z" transform="translate(-278.54 -478.01)" fill="#ab110b"/>
    </g>
  </g>
</svg>
