<svg xmlns="http://www.w3.org/2000/svg" width="18.803" height="18.803" viewBox="0 0 18.803 18.803">
  <g id="mais" fill="#fff">
    <path d="M 9.401400566101074 18.30280113220215 C 8.38136100769043 18.30280113220215 7.551500797271729 17.47294044494629 7.551500797271729 16.45289993286133 L 7.551500797271729 11.75220012664795 L 7.551500797271729 11.25220012664795 L 7.051500797271729 11.25220012664795 L 2.350800514221191 11.25220012664795 C 1.330270528793335 11.25220012664795 0.500000536441803 10.42193031311035 0.500000536441803 9.401400566101074 C 0.500000536441803 8.38136100769043 1.330270528793335 7.551500797271729 2.350800514221191 7.551500797271729 L 7.051500797271729 7.551500797271729 L 7.551500797271729 7.551500797271729 L 7.551500797271729 7.051500797271729 L 7.551500797271729 2.350800514221191 C 7.551500797271729 1.330270528793335 8.38136100769043 0.500000536441803 9.401400566101074 0.500000536441803 C 10.42193031311035 0.500000536441803 11.25220012664795 1.330270528793335 11.25220012664795 2.350800514221191 L 11.25220012664795 7.051500797271729 L 11.25220012664795 7.551500797271729 L 11.75220012664795 7.551500797271729 L 16.45289993286133 7.551500797271729 C 17.47294044494629 7.551500797271729 18.30280113220215 8.38136100769043 18.30280113220215 9.401400566101074 C 18.30280113220215 10.42193031311035 17.47294044494629 11.25220012664795 16.45289993286133 11.25220012664795 L 11.75220012664795 11.25220012664795 L 11.25220012664795 11.25220012664795 L 11.25220012664795 11.75220012664795 L 11.25220012664795 16.45289993286133 C 11.25220012664795 17.47294044494629 10.42193031311035 18.30280113220215 9.401400566101074 18.30280113220215 Z" stroke="none"/>
    <path d="M 9.401400566101074 17.80280113220215 C 10.14623069763184 17.80280113220215 10.75220012664795 17.19724082946777 10.75220012664795 16.45289993286133 L 10.75220012664795 11.75220012664795 L 10.75220012664795 10.75220012664795 L 11.75220012664795 10.75220012664795 L 16.45289993286133 10.75220012664795 C 17.19724082946777 10.75220012664795 17.80280113220215 10.14623069763184 17.80280113220215 9.401400566101074 C 17.80280113220215 8.657060623168945 17.19724082946777 8.05150032043457 16.45289993286133 8.05150032043457 L 11.75220012664795 8.05150032043457 L 10.75220012664795 8.05150032043457 L 10.75220012664795 7.051500797271729 L 10.75220012664795 2.350800514221191 C 10.75220012664795 1.605970621109009 10.14623069763184 1.000000596046448 9.401400566101074 1.000000596046448 C 8.657060623168945 1.000000596046448 8.05150032043457 1.605970621109009 8.05150032043457 2.350800514221191 L 8.05150032043457 7.051500797271729 L 8.05150032043457 8.05150032043457 L 7.051500797271729 8.05150032043457 L 2.350800514221191 8.05150032043457 C 1.605970621109009 8.05150032043457 1.000000596046448 8.657060623168945 1.000000596046448 9.401400566101074 C 1.000000596046448 10.14623069763184 1.605970621109009 10.75220012664795 2.350800514221191 10.75220012664795 L 7.051500797271729 10.75220012664795 L 8.05150032043457 10.75220012664795 L 8.05150032043457 11.75220012664795 L 8.05150032043457 16.45289993286133 C 8.05150032043457 17.19724082946777 8.657060623168945 17.80280113220215 9.401400566101074 17.80280113220215 M 9.401400566101074 18.80280113220215 C 8.10360050201416 18.80280113220215 7.051500797271729 17.75069999694824 7.051500797271729 16.45289993286133 L 7.051500797271729 11.75220012664795 L 2.350800514221191 11.75220012664795 C 1.052100539207458 11.75220012664795 5.661010504809383e-07 10.70010089874268 5.661010504809383e-07 9.401400566101074 C 5.661010504809383e-07 8.10360050201416 1.052100539207458 7.051500797271729 2.350800514221191 7.051500797271729 L 7.051500797271729 7.051500797271729 L 7.051500797271729 2.350800514221191 C 7.051500797271729 1.052100539207458 8.10360050201416 5.661010504809383e-07 9.401400566101074 5.661010504809383e-07 C 10.70010089874268 5.661010504809383e-07 11.75220012664795 1.052100539207458 11.75220012664795 2.350800514221191 L 11.75220012664795 7.051500797271729 L 16.45289993286133 7.051500797271729 C 17.75069999694824 7.051500797271729 18.80280113220215 8.10360050201416 18.80280113220215 9.401400566101074 C 18.80280113220215 10.70010089874268 17.75069999694824 11.75220012664795 16.45289993286133 11.75220012664795 L 11.75220012664795 11.75220012664795 L 11.75220012664795 16.45289993286133 C 11.75220012664795 17.75069999694824 10.70010089874268 18.80280113220215 9.401400566101074 18.80280113220215 Z" stroke="none" fill="#fff"/>
  </g>
</svg>
