<svg xmlns="http://www.w3.org/2000/svg" width="38.881" height="38.365" viewBox="0 0 38.881 38.365">
  <g id="morangoRoxo" transform="translate(-0.993 -0.972)">
    <path id="Caminho_105" data-name="Caminho 105" d="M-614.043,1036.921s-4.228,16.121,0,20.22,16.126,1.059,16.126,1.059,23-5.815,14.405-19.429-15.242-13.485-15.242-13.485S-608.621,1021.721-614.043,1036.921Z" transform="translate(617.42 -1020.45)" fill="none" stroke="#25113f" stroke-linecap="round" stroke-linejoin="round" stroke-width="1"/>
    <path id="Caminho_106" data-name="Caminho 106" d="M-569.309,1026.031s-.463-2.891,0-2.891,8.294.532,7.17,4" transform="translate(592.48 -1019.492)" fill="none" stroke="#25113f" stroke-linecap="round" stroke-linejoin="round" stroke-width="1"/>
    <path id="Caminho_107" data-name="Caminho 107" d="M-545.86,1046.718s1.85,1.42,3.173,0,.759-6.18-1.818-7.008" transform="translate(579.768 -1028.397)" fill="none" stroke="#25113f" stroke-linecap="round" stroke-linejoin="round" stroke-width="1"/>
    <path id="Caminho_108" data-name="Caminho 108" d="M-545.94,1026.391s2.244-4.1.694-5.616-3.964,1.351-3.964,1.351" transform="translate(581.568 -1017.983)" fill="none" stroke="#25113f" stroke-linecap="round" stroke-linejoin="round" stroke-width="1"/>
    <path id="Caminho_109" data-name="Caminho 109" d="M-558.936,1021.478s-.241-3.28.851-3.016,3.479.967,3.9,2.35" transform="translate(586.807 -1016.97)" fill="none" stroke="#25113f" stroke-linecap="round" stroke-linejoin="round" stroke-width="1"/>
    <path id="Caminho_110" data-name="Caminho 110" d="M-541.68,1032.52s3.752.463,3.52,1.776-.888,1.85-2.641,2.655" transform="translate(577.521 -1024.533)" fill="none" stroke="#25113f" stroke-linecap="round" stroke-linejoin="round" stroke-width="1"/>
    <path id="Caminho_111" data-name="Caminho 111" d="M-593.633,1032.52s-5.357,2.008-5.089,3.988" transform="translate(608.181 -1024.533)" fill="none" stroke="#25113f" stroke-linecap="round" stroke-linejoin="round" stroke-width="1"/>
    <path id="Caminho_112" data-name="Caminho 112" d="M-584.29,1032.37a7.275,7.275,0,0,1,2.535,0" transform="translate(600.42 -1024.382)" fill="none" stroke="#25113f" stroke-linecap="round" stroke-linejoin="round" stroke-width="1"/>
    <line id="Linha_42" data-name="Linha 42" y1="1.587" x2="1.651" transform="translate(5.163 29.16)" fill="none" stroke="#25113f" stroke-linecap="round" stroke-linejoin="round" stroke-width="1"/>
    <line id="Linha_43" data-name="Linha 43" y1="1.948" x2="1.92" transform="translate(8.928 19.709)" fill="none" stroke="#25113f" stroke-linecap="round" stroke-linejoin="round" stroke-width="1"/>
    <line id="Linha_44" data-name="Linha 44" y1="1.739" x2="1.92" transform="translate(12.629 12.419)" fill="none" stroke="#25113f" stroke-linecap="round" stroke-linejoin="round" stroke-width="1"/>
    <line id="Linha_45" data-name="Linha 45" y1="1.517" x2="1.651" transform="translate(18.975 12.969)" fill="none" stroke="#25113f" stroke-linecap="round" stroke-linejoin="round" stroke-width="1"/>
    <line id="Linha_46" data-name="Linha 46" y1="1.721" x2="1.517" transform="translate(24.725 15.81)" fill="none" stroke="#25113f" stroke-linecap="round" stroke-linejoin="round" stroke-width="1"/>
    <line id="Linha_47" data-name="Linha 47" x1="2.119" y2="1.948" transform="translate(16.131 19.709)" fill="none" stroke="#25113f" stroke-linecap="round" stroke-linejoin="round" stroke-width="1"/>
    <line id="Linha_48" data-name="Linha 48" x1="1.587" y2="1.716" transform="translate(12 26.121)" fill="none" stroke="#25113f" stroke-linecap="round" stroke-linejoin="round" stroke-width="1"/>
    <line id="Linha_49" data-name="Linha 49" y1="1.522" x2="1.152" transform="translate(10.848 31.602)" fill="none" stroke="#25113f" stroke-linecap="round" stroke-linejoin="round" stroke-width="1"/>
    <line id="Linha_50" data-name="Linha 50" y1="1.786" x2="2.082" transform="translate(17.717 25.723)" fill="none" stroke="#25113f" stroke-linecap="round" stroke-linejoin="round" stroke-width="1"/>
    <line id="Linha_51" data-name="Linha 51" y1="1.85" x2="1.762" transform="translate(22.963 22.813)" fill="none" stroke="#25113f" stroke-linecap="round" stroke-linejoin="round" stroke-width="1"/>
    <line id="Linha_52" data-name="Linha 52" x1="1.587" y2="1.651" transform="translate(29.943 23.345)" fill="none" stroke="#25113f" stroke-linecap="round" stroke-linejoin="round" stroke-width="1"/>
    <line id="Linha_53" data-name="Linha 53" x1="1.143" y2="1.587" transform="translate(26.705 28.036)" fill="none" stroke="#25113f" stroke-linecap="round" stroke-linejoin="round" stroke-width="1"/>
    <line id="Linha_54" data-name="Linha 54" x1="1.254" y2="1.517" transform="translate(18.975 31.209)" fill="none" stroke="#25113f" stroke-linecap="round" stroke-linejoin="round" stroke-width="1"/>
  </g>
</svg>
