<svg xmlns="http://www.w3.org/2000/svg" width="60.695" height="29.16" viewBox="0 0 60.695 29.16">
  <g id="pacocaBranco" transform="translate(0.019 0.072)">
    <path id="Caminho_138" data-name="Caminho 138" d="M82.2,23.94" transform="translate(-74.366 -9.689)" fill="none" stroke="#fff" stroke-linecap="round" stroke-linejoin="round" stroke-width="1"/>
    <path id="Caminho_139" data-name="Caminho 139" d="M133.85-15.11" transform="translate(-113.025 19.539)" fill="none" stroke="#fff" stroke-linecap="round" stroke-linejoin="round" stroke-width="1"/>
    <path id="Caminho_140" data-name="Caminho 140" d="M84.319-32.229c2.9,0,7.294.875,8.406,5.964a9.4,9.4,0,0,1,.151,3.423,12.262,12.262,0,0,0-2.3.377A18.361,18.361,0,0,1,86.348-22a6.741,6.741,0,0,1-2.8-.43,16.862,16.862,0,0,0-6.25-1.4s-.158-.018-.435-.018c-1.564,0-6.985.546-9.915,7.78a8,8,0,0,0,1.9,6.019,14.341,14.341,0,0,1-4.462,1.7,17.82,17.82,0,0,1-3.838.463c-7.594,0-8.8-6.162-8.8-6.162.317-9.183,7.058-10.841,7.058-10.841a19.456,19.456,0,0,1,5.327-.893,7.114,7.114,0,0,1,1.026.065,2.165,2.165,0,0,0,.3.013c1.715,0,5.2-1.663,6.288-2.462C74.524-30.2,81.768-32,81.685-32h0a13.729,13.729,0,0,1,2.636-.252m0-.755h0a14.48,14.48,0,0,0-2.8.252.569.569,0,0,0-.093.028l-.2.053c-3.363.908-7.815,2.317-9.94,3.871-1.074.807-4.382,2.337-5.846,2.337a1.375,1.375,0,0,1-.189,0,7.746,7.746,0,0,0-1.134-.073,20.189,20.189,0,0,0-5.534.921,9.628,9.628,0,0,0-3.71,2.141c-1.683,1.522-3.723,4.389-3.9,9.395a.808.808,0,0,0,0,.174,8.6,8.6,0,0,0,1.708,3.411,9.619,9.619,0,0,0,7.85,3.36A18.7,18.7,0,0,0,64.536-7.6a15.06,15.06,0,0,0,4.721-1.816.755.755,0,0,0,.334-.526.754.754,0,0,0-.176-.6,7.357,7.357,0,0,1-1.733-5.335c2.767-6.693,7.717-7.216,9.178-7.216.224,0,.352.013.355.013h.043a16.262,16.262,0,0,1,5.931,1.31,7.1,7.1,0,0,0,3.159.521,19,19,0,0,0,4.432-.5,11.407,11.407,0,0,1,2.158-.35.755.755,0,0,0,.682-.639,10.187,10.187,0,0,0-.158-3.7c-.918-4.228-4.165-6.557-9.143-6.557Z" transform="translate(-51 32.93)" fill="#fff"/>
    <path id="Caminho_141" data-name="Caminho 141" d="M130.43-20.71" transform="translate(-110.465 23.73)" fill="none" stroke="#fff" stroke-linecap="round" stroke-linejoin="round" stroke-width="1"/>
    <path id="Caminho_142" data-name="Caminho 142" d="M65.938,14.8a11.452,11.452,0,0,0,.131,3.111,9.486,9.486,0,0,0,.39,1.466,8.974,8.974,0,0,0,.609,1.388c.5.936.958,1.9,1.371,2.875A22.834,22.834,0,0,1,69.5,26.66c-.561-.908-1.082-1.829-1.59-2.767S66.9,22.047,66.4,21.126a8.049,8.049,0,0,1-.913-3.147,7.486,7.486,0,0,1,.043-1.62A5.974,5.974,0,0,1,65.938,14.8Z" transform="translate(-61.837 -2.848)" fill="#fff"/>
    <path id="Caminho_143" data-name="Caminho 143" d="M80.331,3.66a14.378,14.378,0,0,0-.113,3.486,10.114,10.114,0,0,0,.87,3.27c.221.5.533,1.049.755,1.592a16.972,16.972,0,0,1,.639,1.688,11.522,11.522,0,0,1,.634,3.521A25.015,25.015,0,0,0,81.931,13.9c-.234-.533-.47-1.064-.737-1.582s-.536-1.006-.8-1.58c-.141-.274-.226-.573-.34-.86-.05-.143-.086-.294-.128-.44a3.882,3.882,0,0,1-.111-.448c-.055-.3-.116-.6-.141-.906a7.93,7.93,0,0,1-.05-.913,8.693,8.693,0,0,1,.712-3.516Z" transform="translate(-72.434 5.49)" fill="#fff"/>
    <path id="Caminho_144" data-name="Caminho 144" d="M97.441-2.42a7.241,7.241,0,0,0-.151,1.9,11.959,11.959,0,0,0,.226,1.871,14.521,14.521,0,0,0,.5,1.811l.151.445.174.438c.06.146.113.294.179.438l.2.428c.252.573.551,1.16.807,1.761s.518,1.185.755,1.788.453,1.212.651,1.831a12.776,12.776,0,0,1,.463,1.889c-.5-1.19-1.094-2.329-1.653-3.481s-1.147-2.281-1.7-3.461a12.855,12.855,0,0,1-1.1-3.773,9.114,9.114,0,0,1,0-1.977,5.47,5.47,0,0,1,.5-1.907Z" transform="translate(-85.358 10.041)" fill="#fff"/>
    <path id="Caminho_145" data-name="Caminho 145" d="M113.636,4.16a15.387,15.387,0,0,1,.478,1.537c.136.5.252,1.006.382,1.509s.252,1.006.4,1.474c.04.118.078.252.126.355l.068.176c.028.063.058.128.083.191a3.454,3.454,0,0,1,.206.8c-.184-.206-.347-.418-.523-.609l-.128-.146-.133-.169a2.463,2.463,0,0,1-.236-.352,5.91,5.91,0,0,1-.6-1.539,8.49,8.49,0,0,1-.234-1.6,6.7,6.7,0,0,1,.113-1.625Z" transform="translate(-97.804 5.116)" fill="#fff"/>
    <path id="Caminho_146" data-name="Caminho 146" d="M128.508-1.16a3.165,3.165,0,0,1,.621.724,4.8,4.8,0,0,1,.41.81,4.627,4.627,0,0,1,.252.873,2.969,2.969,0,0,1,.033.948,3.412,3.412,0,0,1-.589-.739,5.215,5.215,0,0,1-.407-.815,5.283,5.283,0,0,1-.252-.865,3.4,3.4,0,0,1-.068-.936Z" transform="translate(-109.021 9.097)" fill="#fff"/>
    <path id="Caminho_147" data-name="Caminho 147" d="M136.35-12.83a2.867,2.867,0,0,1,.6.445,5.977,5.977,0,0,1,.5.531,8.218,8.218,0,0,1,.845,1.19,7.946,7.946,0,0,1,.619,1.326,5.092,5.092,0,0,1,.3,1.446,13.986,13.986,0,0,1-.835-1.187c-.252-.4-.5-.8-.737-1.2s-.458-.828-.677-1.238S136.556-12.37,136.35-12.83Z" transform="translate(-114.896 17.832)" fill="#fff"/>
    <path id="Caminho_148" data-name="Caminho 148" d="M156.83-14.23a5.611,5.611,0,0,1,1.162,1.056,8.32,8.32,0,0,1,.893,1.28,7.879,7.879,0,0,1,.634,1.426,5.5,5.5,0,0,1,.292,1.544c-.319-.433-.568-.87-.833-1.3s-.5-.865-.755-1.3-.485-.873-.724-1.318S157.036-13.74,156.83-14.23Z" transform="translate(-130.225 18.88)" fill="#fff"/>
    <path id="Caminho_149" data-name="Caminho 149" d="M171.86-19.72a9.927,9.927,0,0,1,1.934,1.534,11.03,11.03,0,0,1,1.577,1.917,7.025,7.025,0,0,1,.591,1.124,5.593,5.593,0,0,1,.209.636,4.56,4.56,0,0,1,.1.649,19.616,19.616,0,0,1-.025,2.462,19.74,19.74,0,0,1-.558-2.379,6.6,6.6,0,0,0-.953-2.073c-.42-.662-.9-1.3-1.381-1.939Z" transform="translate(-141.474 22.989)" fill="#fff"/>
    <path id="Caminho_150" data-name="Caminho 150" d="M192.706-22.573a4.085,4.085,0,0,1,1.054.646,4.739,4.739,0,0,1,.855.883,10.553,10.553,0,0,1,.6,1.079c.05.088.1.179.148.264s.091.184.141.272c.1.176.189.362.284.546a2.215,2.215,0,0,1,.126.284c.038.1.075.194.111.292.065.2.1.407.146.614a9.649,9.649,0,0,0,.252,1.127c.1.372.234.734.362,1.119a2.382,2.382,0,0,1,.166,1.23.025.025,0,0,1-.011.016.025.025,0,0,1-.019,0,.028.028,0,0,1-.02-.02,3.789,3.789,0,0,0-.478-1.072,6.082,6.082,0,0,1-.516-1.122,5.3,5.3,0,0,1-.211-1.24c-.025-.189-.038-.382-.065-.573a3.8,3.8,0,0,0-.106-.576,3.144,3.144,0,0,0-.176-.566c-.038-.093-.08-.181-.123-.272a2.1,2.1,0,0,0-.153-.252,6,6,0,0,0-.78-.893l-1.612-1.748a.025.025,0,0,1,0-.035A.028.028,0,0,1,192.706-22.573Z" transform="translate(-157.051 25.125)" fill="#fff"/>
    <path id="Caminho_151" data-name="Caminho 151" d="M72.85,53.513c.533,0,1.044.05,1.557.078s1.006.063,1.509.128a8.927,8.927,0,0,0,1.534.171,4.819,4.819,0,0,0,1.509-.3c.483-.184.948-.377,1.406-.576s.883-.45,1.348-.689a23.631,23.631,0,0,1,2.877-1.22.043.043,0,0,1,.05.025.04.04,0,0,1,0,.04A12.173,12.173,0,0,1,82.1,53.038a6.245,6.245,0,0,1-.712.352,7.678,7.678,0,0,1-.755.289,7.313,7.313,0,0,1-.78.211c-.267.043-.531.086-.8.1-.536.04-1.056.078-1.577.141-.252.025-.521.086-.785.118l-.4.063c-.133.015-.252.025-.4.033a5.876,5.876,0,0,1-1.582-.176,5.222,5.222,0,0,1-1.5-.579.04.04,0,0,1,.02-.073Z" transform="translate(-67.331 -30.021)" fill="#fff"/>
    <path id="Caminho_152" data-name="Caminho 152" d="M60.361-11.92a21.381,21.381,0,0,1,3.5-2.551A20.286,20.286,0,0,1,67.8-16.3a16.885,16.885,0,0,1,4.251-.812,3.873,3.873,0,0,1,.541-.02h2.156l.533-.043a10.519,10.519,0,0,0,1.054-.148A5.68,5.68,0,0,0,78.26-18.1a15.343,15.343,0,0,0,1.615-1.4,9.308,9.308,0,0,1,1.8-1.283,5.321,5.321,0,0,1,.5-.252c.169-.073.332-.163.5-.224.345-.118.689-.264,1.036-.362a32.365,32.365,0,0,1,4.221-1.006,21.958,21.958,0,0,1,4.316-.309.025.025,0,0,1,.017.009.025.025,0,0,1,.006.019.023.023,0,0,1-.023.023h0a30.078,30.078,0,0,0-4.241.649q-2.1.463-4.133,1.122a9.842,9.842,0,0,0-3.685,1.959,13.175,13.175,0,0,1-1.71,1.358,5.649,5.649,0,0,1-2.1.722c-1.451.211-2.9,0-4.319.121-.355.043-.709.086-1.061.138l-1.044.252c-.345.091-.684.206-1.024.307s-.669.252-1.006.36a34.733,34.733,0,0,0-7.546,4.024.025.025,0,0,1-.035,0,.03.03,0,0,1-.006-.027A.03.03,0,0,1,60.361-11.92Z" transform="translate(-58.006 25.401)" fill="#fff"/>
    <path id="Caminho_153" data-name="Caminho 153" d="M73.485-5.464a29.761,29.761,0,0,1,5.848-2.515A26.038,26.038,0,0,1,85.6-9.113a12.561,12.561,0,0,0,1.562-.226c.521-.088,1.024-.252,1.532-.38a24.4,24.4,0,0,0,2.938-1.157,33.39,33.39,0,0,0,5.425-3.154h0a.128.128,0,0,1,.04-.023,17.212,17.212,0,0,1,2.369-.853,19.906,19.906,0,0,1,2.442-.548c.41-.075.828-.121,1.24-.169s.83-.075,1.258-.083a17.134,17.134,0,0,1,2.49.075.03.03,0,0,1,.023.028.025.025,0,0,1-.025.023c-.828.02-1.65.05-2.467.146a22.638,22.638,0,0,0-2.432.4,24.449,24.449,0,0,0-2.374.621,21.748,21.748,0,0,0-2.286.848l.045-.028a26.172,26.172,0,0,1-2.722,1.685,27.47,27.47,0,0,1-2.883,1.373,28.673,28.673,0,0,1-3.018,1.006c-.516.118-1.026.267-1.552.355-.252.045-.518.116-.782.146s-.528.07-.79.111a38.818,38.818,0,0,0-6.155,1.376,58.482,58.482,0,0,0-5.954,2.13.025.025,0,0,1-.033,0,.028.028,0,0,1-.017-.024A.028.028,0,0,1,73.485-5.464Z" transform="translate(-67.832 19.996)" fill="#fff"/>
    <path id="Caminho_154" data-name="Caminho 154" d="M170.205-3.393a6.646,6.646,0,0,1,1.152-.694,6.949,6.949,0,0,1,1.225-.488c.428-.113.88-.161,1.3-.3a5.83,5.83,0,0,0,1.192-.571,12.216,12.216,0,0,1,1.162-.641c.395-.2.79-.395,1.2-.556A12.249,12.249,0,0,1,180-7.362a.038.038,0,0,1,.03.006.038.038,0,0,1,.015.026.033.033,0,0,1-.015.035A11,11,0,0,1,177.748-5.9c-.4.184-.82.327-1.24.473-.209.07-.418.143-.631.2s-.433.108-.649.161a6.522,6.522,0,0,0-1.258.415c-.4.184-.767.458-1.162.664a6.413,6.413,0,0,1-1.258.448,6.255,6.255,0,0,1-1.331.216.04.04,0,0,1-.04-.04.035.035,0,0,1,.025-.03Z" transform="translate(-140.217 13.74)" fill="#fff"/>
    <path id="Caminho_155" data-name="Caminho 155" d="M65.3,25.614a13.213,13.213,0,0,1,1.793-.868,14.136,14.136,0,0,1,1.869-.641c.641-.161,1.305-.252,1.939-.435a13.666,13.666,0,0,0,1.864-.689c.606-.274,1.215-.528,1.836-.755s1.24-.455,1.871-.641a22.975,22.975,0,0,1,3.891-.8.043.043,0,0,1,.043.035.04.04,0,0,1-.02.038,29.011,29.011,0,0,1-3.672,1.509c-.624.206-1.258.377-1.894.551-.319.086-.636.174-.958.252s-.646.141-.968.211a13.681,13.681,0,0,0-1.9.531c-.619.226-1.207.548-1.816.8a15.013,15.013,0,0,1-1.881.6,14.059,14.059,0,0,1-1.954.385.038.038,0,0,1-.025-.07Z" transform="translate(-61.709 -7.324)" fill="#fff"/>
    <path id="Caminho_156" data-name="Caminho 156" d="M195,11.255a.44.44,0,0,1,.048-.234c.033-.053.068-.1.131-.1s.156.03.211,0a.2.2,0,0,0,.1-.141.45.45,0,0,1,.075-.179.342.342,0,0,1,.116-.123.543.543,0,0,1,.413-.015.045.045,0,0,1,.03.04.5.5,0,0,1-.118.4.389.389,0,0,1-.158.078.405.405,0,0,1-.2.02.194.194,0,0,0-.174.05c-.038.045-.038.143-.068.2a.181.181,0,0,1-.151.083.428.428,0,0,1-.234-.05A.05.05,0,0,1,195,11.255Z" transform="translate(-158.79 0.425)" fill="#fff"/>
    <path id="Caminho_157" data-name="Caminho 157" d="M63.763,42c.561-.126,1.119-.226,1.678-.319s1.119-.186,1.683-.252,1.139-.073,1.7-.163c.279-.048.558-.1.835-.169s.548-.153.822-.231.543-.176.815-.252l.825-.234,1.63-.478c.551-.138,1.094-.3,1.648-.43s1.1-.282,1.668-.387a.034.034,0,0,1,.03.048,18.926,18.926,0,0,1-3.182,1.285c-.277.078-.548.163-.828.229l-.835.194c-.558.131-1.124.224-1.69.3s-1.132.166-1.688.292-1.1.3-1.665.415a8.139,8.139,0,0,1-.848.136c-.284.038-.568.063-.855.08a9.828,9.828,0,0,1-1.72-.015.023.023,0,0,1-.023-.028A.028.028,0,0,1,63.763,42Z" transform="translate(-60.565 -21.027)" fill="#fff"/>
    <path id="Caminho_158" data-name="Caminho 158" d="M212.06,6.8" transform="translate(-171.563 3.14)" fill="#fff" stroke="#fff" stroke-linecap="round" stroke-linejoin="round" stroke-width="1"/>
    <path id="Caminho_159" data-name="Caminho 159" d="M210.77.37" transform="translate(-170.597 7.952)" fill="#fff" stroke="#fff" stroke-linecap="round" stroke-linejoin="round" stroke-width="1"/>
    <path id="Caminho_160" data-name="Caminho 160" d="M135.842,16a10.2,10.2,0,0,0-.579,1.466,10.456,10.456,0,0,0-.367,1.509,9.664,9.664,0,0,0-.138,1.509,9.206,9.206,0,0,0,.093,1.509q.226,1.577.3,3.172a22.5,22.5,0,0,1-.038,3.189c-.216-1.046-.387-2.088-.548-3.129s-.317-2.083-.463-3.124a8.05,8.05,0,0,1,.221-3.27,7.648,7.648,0,0,1,.6-1.509A5.988,5.988,0,0,1,135.842,16Z" transform="translate(-113.158 -3.746)" fill="#fff"/>
    <path id="Caminho_161" data-name="Caminho 161" d="M126.786,4.136a4.276,4.276,0,0,1,.433.018,16.924,16.924,0,0,1,6.253,1.4,6.739,6.739,0,0,0,2.8.428A18.427,18.427,0,0,0,140.5,5.52a19.21,19.21,0,0,1,4.844-.47c2.893,0,5.695.292,5.805.292h0s9.49,1.293,8.424,9.161-8.947,7.762-12.073,8.084a9.979,9.979,0,0,1-1.021.048c-3.245,0-8.087-1.2-8.572-1.879-.292-.407-1.456-.5-2.47-.5-.868,0-1.627.068-1.627.068-.958,1.2-3.018,1.464-4.653,1.464a16.39,16.39,0,0,1-2.352-.169c-11.213-1.509-9.918-9.7-9.918-9.7,2.918-7.234,8.336-7.777,9.9-7.777m0-.755c-1.708,0-7.516.6-10.614,8.25a.74.74,0,0,0-.048.166,8.736,8.736,0,0,0,1.67,6.13c1.778,2.387,4.779,3.881,8.884,4.437a17.579,17.579,0,0,0,2.462.176c2.354,0,4.04-.5,5.013-1.487.289-.02.755-.045,1.258-.045a4.409,4.409,0,0,1,1.886.226c.911,1.117,6.323,2.153,9.156,2.153.4,0,.767-.018,1.1-.05.264-.028.573-.053.9-.078,3.509-.284,10.786-.86,11.852-8.658a7.837,7.837,0,0,0-4.165-8.288,14.732,14.732,0,0,0-4.887-1.723.677.677,0,0,0-.1,0l-.2-.018c-.782-.073-3.159-.284-5.609-.284a19.309,19.309,0,0,0-5.056.5,17.657,17.657,0,0,1-4.024.433,5.589,5.589,0,0,1-2.445-.337A17.549,17.549,0,0,0,127.261,3.4a4.807,4.807,0,0,0-.488-.02Z" transform="translate(-99.72 5.7)" fill="#fff"/>
    <path id="Caminho_162" data-name="Caminho 162" d="M152.119,10.74a14.209,14.209,0,0,0-1.318,3.235,10.061,10.061,0,0,0-.3,3.37c.035.548.138,1.17.174,1.761a17.1,17.1,0,0,1,.028,1.8,11.6,11.6,0,0,1-.614,3.521,25.258,25.258,0,0,0,.025-3.521c-.04-.581-.078-1.162-.151-1.738s-.156-1.132-.214-1.761a8.7,8.7,0,0,1-.023-.923c0-.153.02-.307.03-.46a3.971,3.971,0,0,1,.048-.458,8.349,8.349,0,0,1,.181-.9,7.6,7.6,0,0,1,.251-.875,8.711,8.711,0,0,1,1.879-3.049Z" transform="translate(-124.907 0.191)" fill="#fff"/>
    <path id="Caminho_163" data-name="Caminho 163" d="M170.746,10.74a7.277,7.277,0,0,0-.792,1.733,11.619,11.619,0,0,0-.43,1.834,14.635,14.635,0,0,0-.151,1.876v.468l.015.473a4.207,4.207,0,0,0,.018.47l.04.47c.033.624.118,1.28.158,1.919s.08,1.29.088,1.937,0,1.3-.015,1.942a13.149,13.149,0,0,1-.214,1.934c-.07-1.29-.229-2.561-.357-3.838s-.294-2.535-.413-3.833a12.762,12.762,0,0,1,.264-3.931,9.145,9.145,0,0,1,.664-1.859,5.5,5.5,0,0,1,1.124-1.595Z" transform="translate(-139.067 0.191)" fill="#fff"/>
    <path id="Caminho_164" data-name="Caminho 164" d="M185.577,22c-.081.88-.181,1.741-.252,2.6-.033.428-.058.853-.065,1.273a5.978,5.978,0,0,0,.083,1.215l.023.143.035.174c.02.113.045.229.055.345.03.229.043.455.053.682a10.255,10.255,0,0,1-.06,1.336,11.76,11.76,0,0,1-.543,2.593l-.033-2.608c-.018-.43-.03-.855-.065-1.275-.025-.206-.04-.415-.075-.616a1.494,1.494,0,0,0-.055-.3l-.063-.324a5.283,5.283,0,0,1-.053-1.388,9.247,9.247,0,0,1,.2-1.326,11.185,11.185,0,0,1,.82-2.518Z" transform="translate(-150.963 -8.237)" fill="#fff"/>
    <path id="Caminho_165" data-name="Caminho 165" d="M202.476,22a16.848,16.848,0,0,1,.362,2.465,16.259,16.259,0,0,1,.035,2.515c-.083.843-.2,1.64-.352,2.457a20.078,20.078,0,0,1-.568,2.42,21.014,21.014,0,0,1-.018-2.485c.03-.82.108-1.658.186-2.452s.078-1.617.131-2.435S202.355,22.835,202.476,22Z" transform="translate(-163.963 -8.237)" fill="#fff"/>
    <path id="Caminho_166" data-name="Caminho 166" d="M214.973,13.74a8.674,8.674,0,0,1,.674,1.627,15.945,15.945,0,0,1,.438,1.71,13.656,13.656,0,0,1,.239,1.761,11.625,11.625,0,0,1-.03,1.8l-.073.463-.02.113-.028.113-.05.211-.2.84c-.143.561-.252,1.124-.4,1.685s-.252,1.127-.362,1.693a7.531,7.531,0,0,0-.186,1.715,3.19,3.19,0,0,1-.164-.87,4.376,4.376,0,0,1-.02-.443v-.443a17.055,17.055,0,0,1,.151-1.761c.068-.584.176-1.157.279-1.733.055-.287.118-.571.181-.858l.048-.214a1.125,1.125,0,0,0,.035-.2l.058-.4a16.406,16.406,0,0,0-.038-3.386c-.063-.568-.128-1.142-.219-1.71S215.117,14.308,214.973,13.74Z" transform="translate(-173.606 -2.055)" fill="#fff"/>
    <path id="Caminho_167" data-name="Caminho 167" d="M232.067,19.46a13.426,13.426,0,0,1,1.285,7.015c-.028.3-.091.6-.136.9a8.481,8.481,0,0,1-.189.875,17.268,17.268,0,0,1-.5,1.723,12.665,12.665,0,0,1-1.524,3.2,31.657,31.657,0,0,0,.981-3.381c.123-.571.252-1.137.362-1.713l.161-.858c.038-.284.088-.563.111-.85s.063-.568.068-.855l.015-.43v-.43c0-.289-.015-.579-.02-.865s-.033-.579-.065-.868A30.355,30.355,0,0,0,232.067,19.46Z" transform="translate(-185.739 -6.336)" fill="#fff"/>
    <path id="Caminho_168" data-name="Caminho 168" d="M251.24,19.46A11.5,11.5,0,0,1,252.186,21a15.078,15.078,0,0,1,.737,1.66,10.193,10.193,0,0,1,.5,1.761,5.332,5.332,0,0,1,.058,1.912,33.017,33.017,0,0,1-.961,3.481,33.768,33.768,0,0,1-1.283,3.363c.2-1.19.453-2.357.717-3.521.126-.584.277-1.16.4-1.741s.279-1.16.385-1.728a4.872,4.872,0,0,0-.018-1.653,14.207,14.207,0,0,0-.362-1.705A34.373,34.373,0,0,0,251.24,19.46Z" transform="translate(-200.888 -6.336)" fill="#fff"/>
    <path id="Caminho_169" data-name="Caminho 169" d="M269.392,23.885a5.255,5.255,0,0,1,.921,1.258,5.547,5.547,0,0,1,.551,1.479,7.374,7.374,0,0,1,.1,1.575,11.2,11.2,0,0,1-.116,1.562l-.045.375-.018.377v.755a8.519,8.519,0,0,1,.058,1.582.958.958,0,0,1-.048.216c-.023.07-.04.141-.068.211a1.987,1.987,0,0,1-.211.38,2.272,2.272,0,0,1-.269.324,2.566,2.566,0,0,1-.3.274,6.184,6.184,0,0,1-1.353.8.025.025,0,0,1-.033-.013.028.028,0,0,1,0-.03c.38-.355.777-.682,1.109-1.051a2.112,2.112,0,0,0,.639-1.192c.033-.438-.015-.968,0-1.509a4.849,4.849,0,0,1,.252-1.565l.1-.37a2.06,2.06,0,0,0,.085-.37c.018-.126.028-.252.04-.377s0-.252,0-.38a5.467,5.467,0,0,0-.34-1.474c-.156-.475-.312-.951-.5-1.419s-.395-.933-.609-1.406h0a.023.023,0,0,1,0-.033.031.031,0,0,1,.06.015Z" transform="translate(-213.846 -9.619)" fill="#fff"/>
    <path id="Caminho_170" data-name="Caminho 170" d="M130.6,61.05a17.954,17.954,0,0,0,3.652,1.59,12.786,12.786,0,0,0,3.861.558c.641-.018,1.321-.07,1.987-.133s1.336-.143,2-.252,1.318-.252,1.974-.423c.33-.075.659-.153,1.006-.209.171-.028.345-.045.521-.058s.35,0,.518,0a20.077,20.077,0,0,1,4.072.332,7.294,7.294,0,0,1,2.012.667c.179.1.287.141.423.214s.289.113.435.174l.46.143c.153.048.314.08.47.126.634.166,1.283.294,1.937.4s1.316.194,1.977.252a19.468,19.468,0,0,0,1.99.1,6.572,6.572,0,0,0,1.967-.252h0a.038.038,0,0,1,.048.025.04.04,0,0,1-.02.045c-.156.068-.309.153-.47.211s-.327.106-.5.153l-.5.111c-.168.035-.337.053-.5.078a13.916,13.916,0,0,1-2.045.113c-.342,0-.682-.02-1.024-.033s-.682-.048-1.021-.091a17.669,17.669,0,0,1-2.017-.329c-.337-.078-.672-.181-1.006-.294-.166-.068-.335-.126-.5-.2s-.355-.186-.47-.252a7.092,7.092,0,0,0-1.786-.662c-.636-.153-1.29-.252-1.949-.362s-1.321-.184-1.99-.252a4.425,4.425,0,0,0-.978-.035,8.956,8.956,0,0,0-.986.143c-.659.126-1.318.274-1.979.413l-1.982.43a18.476,18.476,0,0,1-2.012.347,5.15,5.15,0,0,1-.521.023h-.523a8.388,8.388,0,0,1-1.034-.118,10.49,10.49,0,0,1-2.012-.533l-.48-.189c-.158-.068-.312-.143-.468-.216a11.007,11.007,0,0,1-2.563-1.678.038.038,0,0,1,0-.053.043.043,0,0,1,.048,0Z" transform="translate(-110.553 -37.465)" fill="#fff"/>
    <path id="Caminho_171" data-name="Caminho 171" d="M132.5,14.683a21.478,21.478,0,0,1,4.158-1.2,20.454,20.454,0,0,1,4.326-.37,16.789,16.789,0,0,1,4.276.7,4.242,4.242,0,0,1,.516.166l.5.181c.345.116.674.252,1.006.367.169.058.332.128.5.176l.516.141a9.927,9.927,0,0,0,1.039.224A5.629,5.629,0,0,0,151.413,15a15.6,15.6,0,0,0,1.99-.739,9.306,9.306,0,0,1,2.128-.589,4.457,4.457,0,0,1,.548-.06c.184,0,.367-.038.551-.035.367,0,.74-.013,1.1,0a32.18,32.18,0,0,1,4.306.5,21.838,21.838,0,0,1,4.16,1.187c.013,0,.02.02.013.033a.02.02,0,0,1-.028.015h0a30.033,30.033,0,0,0-4.208-.845q-2.123-.282-4.276-.365a9.842,9.842,0,0,0-4.133.576,13.08,13.08,0,0,1-2.073.689,5.669,5.669,0,0,1-2.208-.05c-1.434-.3-2.727-.986-4.1-1.368-.347-.08-.7-.163-1.044-.234l-1.064-.133c-.355-.035-.712-.043-1.066-.065s-.712,0-1.066,0a34.814,34.814,0,0,0-8.461,1.2.025.025,0,0,1-.033-.015A.035.035,0,0,1,132.5,14.683Z" transform="translate(-111.977 -1.585)" fill="#fff"/>
    <path id="Caminho_172" data-name="Caminho 172" d="M143.448,26.628a29.66,29.66,0,0,1,6.354-.35,26,26,0,0,1,6.273,1.084,12.847,12.847,0,0,0,1.544.324c.518.1,1.046.123,1.57.169a24.431,24.431,0,0,0,3.154-.078,33.426,33.426,0,0,0,6.183-1.109h0a.128.128,0,0,1,.043,0,17.2,17.2,0,0,1,2.515,0,20.628,20.628,0,0,1,2.483.324c.41.07.817.171,1.222.267s.8.214,1.2.35a17.185,17.185,0,0,1,2.312.928.025.025,0,1,1-.02.045c-.782-.267-1.565-.521-2.367-.709a23.22,23.22,0,0,0-2.415-.463c-.812-.118-1.627-.194-2.445-.231a21.318,21.318,0,0,0-2.44.013h.053a26.134,26.134,0,0,1-3.137.656,27.515,27.515,0,0,1-3.179.3,28.69,28.69,0,0,1-3.184-.111c-.528-.065-1.056-.1-1.58-.2-.252-.048-.528-.068-.787-.131s-.518-.113-.78-.166a38.839,38.839,0,0,0-6.253-.82,58.859,58.859,0,0,0-6.311-.038.025.025,0,0,1-.028-.025.023.023,0,0,1,.02-.028Z" transform="translate(-120.193 -11.409)" fill="#fff"/>
    <path id="Caminho_173" data-name="Caminho 173" d="M130.595,38.653c1.544-.091,3.091-.123,4.636-.116.77,0,1.542,0,2.314.035s1.542.045,2.314.1c1.539.108,3.079.274,4.618.4s3.076.189,4.631.3h.028a18.764,18.764,0,0,0,2.4.294c.81.068,1.622.1,2.437.136,1.627.068,3.257.07,4.89.07h4.9c.817-.015,1.637,0,2.455,0h1.23c.41,0,.82,0,1.23.013a.038.038,0,0,1,.038.038.035.035,0,0,1-.033.038c-.4.06-.812.108-1.22.158s-.815.1-1.222.146c-.817.078-1.635.158-2.452.221s-1.64.1-2.46.146-1.642.058-2.465.063c-1.642,0-3.287-.068-4.932-.184a26.255,26.255,0,0,1-4.892-.772h.03a36.9,36.9,0,0,0-4.6-.4c-1.542-.038-3.086,0-4.628-.023-.772,0-1.542-.04-2.312-.075s-1.542-.075-2.312-.123c-1.539-.091-3.079-.214-4.618-.385a.038.038,0,0,1-.033-.04A.04.04,0,0,1,130.595,38.653Z" transform="translate(-110.569 -20.614)" fill="#fff"/>
    <path id="Caminho_174" data-name="Caminho 174" d="M125.463,48.506c1.58.362,3.169.644,4.764.888s3.2.43,4.8.606c.4.05.8.083,1.2.116s.8.078,1.21.1.807.033,1.212.05.807,0,1.212,0a39.24,39.24,0,0,0,4.824-.407.164.164,0,0,1,.06,0h0c.659.158,1.328.3,2,.43.335.065.672.131,1.006.191s.672.118,1.006.171c1.348.209,2.7.387,4.057.5a33.918,33.918,0,0,0,4.075.131c.342,0,.677-.04,1.019-.058l.5-.038c.169-.018.337-.048.5-.07l.5-.073a3.759,3.759,0,0,0,.5-.088l1.006-.229h0a.025.025,0,0,1,.03.02.023.023,0,0,1-.015.028,15.209,15.209,0,0,1-4.024.885l-1.034.07c-.345,0-.692,0-1.036.015s-.689,0-1.036-.018-.689-.023-1.034-.055a34.445,34.445,0,0,1-4.087-.528,40.4,40.4,0,0,1-4.024-.931h.07c-1.625.116-3.245.191-4.867.2s-3.247.035-4.87-.043a33.705,33.705,0,0,1-4.842-.581,30.4,30.4,0,0,1-4.711-1.238.025.025,0,0,1-.015-.033A.023.023,0,0,1,125.463,48.506Z" transform="translate(-106.725 -28.075)" fill="#fff"/>
  </g>
</svg>
