<svg id="setaEsquerda" xmlns="http://www.w3.org/2000/svg" width="39.581" height="79.995" viewBox="0 0 39.581 79.995">
  <path id="Subtração_2" data-name="Subtração 2" d="M0,80V0A39.859,39.859,0,0,1,15.147,3.139a39.741,39.741,0,0,1,13.207,9.072A39.75,39.75,0,0,1,36.909,25.6a39.866,39.866,0,0,1,2.666,15.1,39.866,39.866,0,0,1-3.191,15,39.749,39.749,0,0,1-9.016,13.077A39.843,39.843,0,0,1,0,80Z" transform="translate(0)" fill="#f5f5f5"/>
  <path id="Caminho_117" data-name="Caminho 117" d="M1409.115,258.319l-11.534,12.067,11.534,11.068" transform="translate(-1389 -229.757)" fill="none" stroke="#25113f" stroke-linecap="round" stroke-width="2"/>
</svg>
